<svg xmlns="http://www.w3.org/2000/svg" viewBox="0 0 500 500"><g id="freepik--background-complete--inject-2"><path d="M89.73,93.6V336.86h120V93.6ZM201.17,327.86H97.54V102.6H201.17Z" style="fill:#e0e0e0"></path><path d="M214.17,340.86H84.54V89.6H214.17Zm-121.63-8H206.17V97.6H92.54Z" style="fill:#ebebeb"></path><polygon points="203.18 157.41 203.18 151.41 152.36 151.41 152.36 100.6 146.36 100.6 146.36 151.41 95.54 151.41 95.54 157.41 146.36 157.41 146.36 212.23 95.54 212.23 95.54 218.23 146.36 218.23 146.36 273.04 95.54 273.04 95.54 279.04 146.36 279.04 146.36 329.86 152.36 329.86 152.36 279.04 203.18 279.04 203.18 273.04 152.36 273.04 152.36 218.23 203.18 218.23 203.18 212.23 152.36 212.23 152.36 157.41 203.18 157.41" style="fill:#f5f5f5"></polygon><path d="M291,93.6V336.86H411V93.6ZM402.46,327.86H298.83V102.6H402.46Z" style="fill:#e0e0e0"></path><path d="M415.46,340.86H285.83V89.6H415.46Zm-121.63-8H407.46V97.6H293.83Z" style="fill:#ebebeb"></path><polygon points="404.46 157.41 404.46 151.41 353.64 151.41 353.64 100.6 347.64 100.6 347.64 151.41 296.82 151.41 296.82 157.41 347.64 157.41 347.64 212.23 296.82 212.23 296.82 218.23 347.64 218.23 347.64 273.04 296.82 273.04 296.82 279.04 347.64 279.04 347.64 329.86 353.64 329.86 353.64 279.04 404.46 279.04 404.46 273.04 353.64 273.04 353.64 218.23 404.46 218.23 404.46 212.23 353.64 212.23 353.64 157.41 404.46 157.41" style="fill:#f5f5f5"></polygon><rect x="66.49" y="62.42" width="37.09" height="9.95" rx="1.32" style="fill:#f5f5f5"></rect><rect x="55.16" y="74.75" width="37.09" height="9.95" rx="1.32" style="fill:#f5f5f5"></rect><rect x="93.98" y="74.75" width="37.09" height="9.95" rx="1.32" style="fill:#f0f0f0"></rect><rect x="395.26" y="73.56" width="37.09" height="9.95" rx="1.32" transform="translate(827.6 157.08) rotate(180)" style="fill:#f5f5f5"></rect><rect x="406.58" y="61.23" width="37.09" height="9.95" rx="1.32" transform="translate(850.25 132.41) rotate(180)" style="fill:#f5f5f5"></rect><rect x="367.76" y="61.23" width="37.09" height="9.95" rx="1.32" transform="translate(772.61 132.41) rotate(180)" style="fill:#f0f0f0"></rect><rect x="239.25" y="73.56" width="37.09" height="9.95" rx="1.32" transform="translate(515.59 157.08) rotate(180)" style="fill:#f5f5f5"></rect><rect x="256.58" y="61.23" width="37.09" height="9.95" rx="1.32" transform="translate(550.24 132.41) rotate(180)" style="fill:#f5f5f5"></rect><rect x="217.76" y="61.23" width="37.09" height="9.95" rx="1.32" transform="translate(472.61 132.41) rotate(180)" style="fill:#f0f0f0"></rect><rect x="395.26" y="362.01" width="37.09" height="9.95" rx="1.32" transform="translate(827.6 733.98) rotate(180)" style="fill:#f5f5f5"></rect><rect x="406.58" y="349.68" width="37.09" height="9.95" rx="1.32" transform="translate(850.25 709.31) rotate(180)" style="fill:#f5f5f5"></rect><rect x="367.76" y="349.68" width="37.09" height="9.95" rx="1.32" transform="translate(772.61 709.31) rotate(180)" style="fill:#f0f0f0"></rect><rect x="66.49" y="350.87" width="37.09" height="9.95" rx="1.32" style="fill:#f5f5f5"></rect><rect x="55.16" y="363.2" width="37.09" height="9.95" rx="1.32" style="fill:#f5f5f5"></rect><rect x="93.98" y="363.2" width="37.09" height="9.95" rx="1.32" style="fill:#f0f0f0"></rect><rect x="222.49" y="350.87" width="37.09" height="9.95" rx="1.32" style="fill:#f5f5f5"></rect><rect x="205.16" y="363.2" width="37.09" height="9.95" rx="1.32" style="fill:#f5f5f5"></rect><rect x="243.98" y="363.2" width="37.09" height="9.95" rx="1.32" style="fill:#f0f0f0"></rect><rect x="416.78" y="398.49" width="33.12" height="0.25" style="fill:#ebebeb"></rect><rect x="322.53" y="401.21" width="8.69" height="0.25" style="fill:#ebebeb"></rect><rect x="396.59" y="389.21" width="19.19" height="0.25" style="fill:#ebebeb"></rect><rect x="52.46" y="390.89" width="43.19" height="0.25" style="fill:#ebebeb"></rect><rect x="104.56" y="390.89" width="6.33" height="0.25" style="fill:#ebebeb"></rect><rect x="131.47" y="395.11" width="93.68" height="0.25" style="fill:#ebebeb"></rect><path d="M237,337.8H43.92a5.71,5.71,0,0,1-5.71-5.71V60.66A5.71,5.71,0,0,1,43.92,55H237a5.71,5.71,0,0,1,5.71,5.71V332.09A5.71,5.71,0,0,1,237,337.8ZM43.92,55.2a5.47,5.47,0,0,0-5.46,5.46V332.09a5.47,5.47,0,0,0,5.46,5.46H237a5.47,5.47,0,0,0,5.46-5.46V60.66A5.47,5.47,0,0,0,237,55.2Z" style="fill:#ebebeb"></path><path d="M453.31,337.8H260.21a5.72,5.72,0,0,1-5.71-5.71V60.66A5.72,5.72,0,0,1,260.21,55h193.1A5.71,5.71,0,0,1,459,60.66V332.09A5.71,5.71,0,0,1,453.31,337.8ZM260.21,55.2a5.47,5.47,0,0,0-5.46,5.46V332.09a5.47,5.47,0,0,0,5.46,5.46h193.1a5.47,5.47,0,0,0,5.46-5.46V60.66a5.47,5.47,0,0,0-5.46-5.46Z" style="fill:#ebebeb"></path><rect y="382.4" width="500" height="0.25" style="fill:#ebebeb"></rect></g><g id="freepik--Shadow--inject-2"><ellipse id="freepik--path--inject-2" cx="245.18" cy="412.39" rx="193.89" ry="11.32" style="fill:#f5f5f5"></ellipse></g><g id="freepik--Basket--inject-2"><polygon points="309.25 360.47 315.54 313.25 321.82 360.47 309.25 360.47" style="fill:#DB3022"></polygon><polygon points="309.25 360.47 315.54 313.25 321.82 360.47 309.25 360.47" style="opacity:0.30000000000000004"></polygon><polygon points="285.2 360.47 291.48 313.25 315.54 313.25 309.25 360.47 285.2 360.47" style="fill:#DB3022"></polygon><polygon points="285.2 360.47 291.48 313.25 315.54 313.25 309.25 360.47 285.2 360.47" style="fill:#fff;opacity:0.7000000000000001"></polygon><path d="M296.87,325.78a1.43,1.43,0,0,1,.39,1.33,2.16,2.16,0,0,1-.43,1,2.25,2.25,0,0,1-.93.7,3.33,3.33,0,0,1-1.4.27,4.4,4.4,0,0,1-1.2-.17,2.43,2.43,0,0,1-.94-.46l.7-1a2.41,2.41,0,0,0,.71.39,2.84,2.84,0,0,0,.88.13,1.54,1.54,0,0,0,.84-.2.76.76,0,0,0,.38-.56.54.54,0,0,0-.21-.57,1.94,1.94,0,0,0-1-.2h-1.5l.82-3.31h3.59l-.17,1.1h-2.45l-.27,1.11h.48A2.47,2.47,0,0,1,296.87,325.78Z" style="fill:#DB3022"></path><path d="M298.78,328.7a1.93,1.93,0,0,1-.73-1.05A3.65,3.65,0,0,1,298,326a4.27,4.27,0,0,1,.59-1.63,3,3,0,0,1,1.06-1.05A2.69,2.69,0,0,1,301,323a2.14,2.14,0,0,1,1.25.36,2,2,0,0,1,.73,1.05A3.63,3.63,0,0,1,303,326a4.42,4.42,0,0,1-.58,1.64,3,3,0,0,1-1.06,1.05,2.71,2.71,0,0,1-1.36.36A2.12,2.12,0,0,1,298.78,328.7Zm2.35-1.26a3,3,0,0,0,.53-1.43,2.49,2.49,0,0,0-.08-1.42.8.8,0,0,0-.77-.47,1.13,1.13,0,0,0-.91.47,3,3,0,0,0-.54,1.42,2.52,2.52,0,0,0,.08,1.43.8.8,0,0,0,.77.47A1.17,1.17,0,0,0,301.13,327.44Z" style="fill:#DB3022"></path><path d="M304,325.81a1.51,1.51,0,0,1-.22-1.18,1.94,1.94,0,0,1,.6-1.18,1.58,1.58,0,0,1,1.12-.45,1.14,1.14,0,0,1,1,.45,1.45,1.45,0,0,1,.22,1.18,2,2,0,0,1-.59,1.18,1.61,1.61,0,0,1-1.12.44A1.19,1.19,0,0,1,304,325.81Zm1.59-.48a1.47,1.47,0,0,0,.27-.7,1.17,1.17,0,0,0-.05-.7.45.45,0,0,0-.42-.24.63.63,0,0,0-.48.24,1.37,1.37,0,0,0-.28.7,1.06,1.06,0,0,0,.06.69.43.43,0,0,0,.41.24A.65.65,0,0,0,305.62,325.33Zm3.41-2.26h1L305.08,329h-1Zm-1.18,5.76a1.09,1.09,0,0,1-.43-.57,1.74,1.74,0,0,1,0-.86,2.08,2.08,0,0,1,.32-.86,1.64,1.64,0,0,1,1.39-.76,1.16,1.16,0,0,1,1,.44,1.46,1.46,0,0,1,.22,1.18,1.88,1.88,0,0,1-.59,1.18,1.59,1.59,0,0,1-1.13.44A1.29,1.29,0,0,1,307.85,328.83Zm1.32-.73a1.41,1.41,0,0,0,.27-.7,1.15,1.15,0,0,0-.05-.69.42.42,0,0,0-.41-.24.62.62,0,0,0-.48.23,1.37,1.37,0,0,0-.28.7,1.17,1.17,0,0,0,0,.7.44.44,0,0,0,.41.24A.62.62,0,0,0,309.17,328.1Z" style="fill:#DB3022"></path><path d="M292.88,337.35a2.3,2.3,0,0,1-1-1.09,2.69,2.69,0,0,1-.17-1.56,3.49,3.49,0,0,1,.66-1.56,3.74,3.74,0,0,1,1.33-1.09,3.83,3.83,0,0,1,1.71-.39,3.12,3.12,0,0,1,1.59.39,2.46,2.46,0,0,1,1,1.09,2.8,2.8,0,0,1,.17,1.56,3.41,3.41,0,0,1-.67,1.56,3.68,3.68,0,0,1-1.32,1.09,3.84,3.84,0,0,1-1.71.4A3.07,3.07,0,0,1,292.88,337.35Zm2.75-1a2.25,2.25,0,0,0,.77-.67,2.35,2.35,0,0,0,.39-1,1.73,1.73,0,0,0-.09-1,1.3,1.3,0,0,0-.55-.67,1.66,1.66,0,0,0-.9-.24,2.06,2.06,0,0,0-1,.24,2.15,2.15,0,0,0-.77.67,2.19,2.19,0,0,0-.39,1,1.86,1.86,0,0,0,.08,1,1.41,1.41,0,0,0,.56.67,1.63,1.63,0,0,0,.9.24A2.09,2.09,0,0,0,295.63,336.35Z" style="fill:#DB3022"></path><path d="M300.85,332.85l-.25,1.56h2.73l-.18,1.09h-2.72l-.34,2.15h-1.36l.93-5.89h4.45l-.17,1.09Z" style="fill:#DB3022"></path><path d="M306.22,332.85l-.24,1.56h2.72l-.17,1.09H305.8l-.34,2.15H304.1l.93-5.89h4.45l-.17,1.09Z" style="fill:#DB3022"></path><polygon points="240.76 396.34 237.01 368.75 255.76 346.25 280.76 349.25 301.51 344.75 322.26 349.25 323.76 359.75 319.76 398.56 311.26 402.24 240.76 396.34" style="fill:#DB3022"></polygon><polygon points="307.52 348.25 276.14 374.58 269.69 366.25 295.35 349.08 307.52 348.25" style="opacity:0.2"></polygon><path d="M330.67,358H228.26a3.26,3.26,0,0,1-3.25-3.25h0a3.26,3.26,0,0,1,3.25-3.25H330.67a3.25,3.25,0,0,1,3.25,3.25h0A3.25,3.25,0,0,1,330.67,358Z" style="fill:#263238"></path><path d="M330.67,358H228.26a3.26,3.26,0,0,1-3.25-3.25h0a3.26,3.26,0,0,1,3.25-3.25H330.67a3.25,3.25,0,0,1,3.25,3.25h0A3.25,3.25,0,0,1,330.67,358Z" style="fill:#fff;opacity:0.5"></path><path d="M230.87,358l3.32,40.61a9,9,0,0,0,8.93,8.23h72.69a9,9,0,0,0,8.93-8.23L328.07,358Zm18.24,33.79a3.32,3.32,0,0,1-6.64,0V367.32a3.32,3.32,0,0,1,6.64,0Zm16.84,0a3.32,3.32,0,1,1-6.64,0V367.32a3.32,3.32,0,1,1,6.64,0Zm16.84,0a3.32,3.32,0,1,1-6.64,0V367.32a3.32,3.32,0,1,1,6.64,0Zm16.84,0a3.33,3.33,0,0,1-6.65,0V367.32a3.33,3.33,0,0,1,6.65,0Zm16.83,0a3.32,3.32,0,1,1-6.64,0V367.32a3.32,3.32,0,1,1,6.64,0Z" style="fill:#263238"></path><path d="M230.87,358l3.32,40.61a9,9,0,0,0,8.93,8.23h72.69a9,9,0,0,0,8.93-8.23L328.07,358Zm18.24,33.79a3.32,3.32,0,0,1-6.64,0V367.32a3.32,3.32,0,0,1,6.64,0Zm16.84,0a3.32,3.32,0,1,1-6.64,0V367.32a3.32,3.32,0,1,1,6.64,0Zm16.84,0a3.32,3.32,0,1,1-6.64,0V367.32a3.32,3.32,0,1,1,6.64,0Zm16.84,0a3.33,3.33,0,0,1-6.65,0V367.32a3.33,3.33,0,0,1,6.65,0Zm16.83,0a3.32,3.32,0,1,1-6.64,0V367.32a3.32,3.32,0,1,1,6.64,0Z" style="fill:#fff;opacity:0.7000000000000001"></path><polygon points="305.51 349.5 318.78 344.75 338.01 349.5 342.51 373.49 326.76 375.5 321.26 351.75 305.51 349.5" style="fill:#DB3022"></polygon><polygon points="325.26 372.92 326.43 376.92 343.6 374.42 342.51 370.33 325.26 372.92" style="fill:#DB3022"></polygon><polygon points="325.26 372.92 326.43 376.92 343.6 374.42 342.51 370.33 325.26 372.92" style="fill:#fff;opacity:0.6000000000000001"></polygon><path d="M329.18,367.79a1.29,1.29,0,1,1-1.29-1.29A1.29,1.29,0,0,1,329.18,367.79Z" style="fill:#fff;opacity:0.7000000000000001"></path><path d="M327.26,361.42a1.29,1.29,0,1,1-1.29-1.3A1.29,1.29,0,0,1,327.26,361.42Z" style="fill:#fff;opacity:0.7000000000000001"></path><path d="M265.73,349.25l-6.38-3-22.34,3-3.75,13.46,3.75,6s-4.33,20.75-1.29,21,6.75-20.25,6.75-20.25l11.29-1.71s.34,22,5.55,22,0-22.43,0-22.43Zm-30,38.63c-2.12-.76,2.63-18.26,2.63-18.26h2.75S237.89,388.62,235.76,387.88Zm23.59-.38c-2.84,1.38-4.09-19.5-4.09-19.5h2.63S262.19,386.12,259.35,387.5Z" style="fill:#DB3022"></path><path d="M265.73,349.25l-6.38-3-22.34,3-3.75,13.46,3.75,6s-4.33,20.75-1.29,21,6.75-20.25,6.75-20.25l11.29-1.71s.34,22,5.55,22,0-22.43,0-22.43Zm-30,38.63c-2.12-.76,2.63-18.26,2.63-18.26h2.75S237.89,388.62,235.76,387.88Zm23.59-.38c-2.84,1.38-4.09-19.5-4.09-19.5h2.63S262.19,386.12,259.35,387.5Z" style="fill:#fff;opacity:0.7000000000000001"></path></g><g id="freepik--Rack--inject-2"><path d="M367.63,402.31H351.47V216.63a17.15,17.15,0,0,0-17.13-17.14h-195a17.15,17.15,0,0,0-17.13,17.14V402.31H106a3.89,3.89,0,0,0-3.89,3.88v.65h43.24v-.65a3.88,3.88,0,0,0-3.88-3.88H125.33V216.63a14,14,0,0,1,14-14h195a14,14,0,0,1,14,14V402.31H332.16a3.89,3.89,0,0,0-3.89,3.88v.65h43.25v-.65A3.89,3.89,0,0,0,367.63,402.31Z" style="fill:#263238"></path><path d="M367.63,402.31H351.47V216.63a17.15,17.15,0,0,0-17.13-17.14h-195a17.15,17.15,0,0,0-17.13,17.14V402.31H106a3.89,3.89,0,0,0-3.89,3.88v.65h43.24v-.65a3.88,3.88,0,0,0-3.88-3.88H125.33V216.63a14,14,0,0,1,14-14h195a14,14,0,0,1,14,14V402.31H332.16a3.89,3.89,0,0,0-3.89,3.88v.65h43.25v-.65A3.89,3.89,0,0,0,367.63,402.31Z" style="fill:#fff;opacity:0.4"></path><path d="M186,203.6a4.43,4.43,0,0,1,.2-1h-1.62a7.39,7.39,0,0,0-.16,1C184.34,204.61,185.92,204.6,186,203.6Z" style="fill:#263238"></path><path d="M212.23,228.1,191,215.36v-6.07c4.39-.94,6.91-6.19,3.31-9.79a5.47,5.47,0,0,0-7.94,0h3.18a3.74,3.74,0,0,1,3.56,1.21,4.21,4.21,0,0,1-2.9,7.14.8.8,0,0,0-.79.78v6.74L168.26,228.1c-.87.52-.08,1.89.79,1.36l10.35-6.22,7.52-4.52c.85-.51,1.77-1,2.58-1.55.17-.12.61-.32.84-.46.53.44,2.37,1.5,2.88,1.8q3.71,2.24,7.42,4.46l10.79,6.49A.79.79,0,0,0,212.23,228.1Z" style="fill:#263238"></path><path d="M216.14,258.05l2,38.36L163.3,296l1.17-36.36-7.34,51.69-13.89-1.68A279.22,279.22,0,0,1,149.05,257c5.82-26.52,19.6-31.05,19.6-31.05a50.1,50.1,0,0,0,43.18,0s15.19,4.11,19,27.26,5.89,56.84,5.89,56.84l-13.89,1.26Z" style="fill:#DB3022"></path><g style="opacity:0.2"><path d="M153.74,310.9l3.39.41,6.92-48.76c-1.34,1.84-3,5.12-4.11,10.92C158.18,282.41,155.06,302.33,153.74,310.9Z"></path></g><g style="opacity:0.2"><path d="M227.55,310.88c-1.33-8.58-4.44-28.48-6.2-37.41-1.34-6.76-3.32-10.09-4.75-11.7l6.21,49.54Z"></path></g><g style="opacity:0.8"><polygon points="217.08 276.45 163.93 276.45 163.64 285.37 217.53 285.37 217.08 276.45" style="fill:#fff"></polygon></g><path d="M170.7,236.11l-5,17.06S163.63,242.93,170.7,236.11Z" style="opacity:0.1"></path><path d="M210.78,236.11l5,17.06S217.86,242.93,210.78,236.11Z" style="opacity:0.1"></path><path d="M211.77,203.6a5.11,5.11,0,0,1,.2-1h-1.61a6,6,0,0,0-.16,1C210.11,204.61,211.68,204.6,211.77,203.6Z" style="fill:#263238"></path><path d="M238,228.1l-21.2-12.74v-6.07c4.4-.94,6.91-6.19,3.31-9.79a5.46,5.46,0,0,0-7.93,0h3.18a3.72,3.72,0,0,1,3.55,1.21,4.21,4.21,0,0,1-2.89,7.14.8.8,0,0,0-.79.78v6.74L194,228.1a.79.79,0,0,0,.8,1.36l10.34-6.22,7.52-4.52c.86-.51,1.78-1,2.59-1.55.17-.12.61-.32.83-.46.53.44,2.38,1.5,2.88,1.8L226.4,223l10.8,6.49C238.07,230,238.86,228.62,238,228.1Z" style="fill:#263238"></path><path d="M194.42,226a50.08,50.08,0,0,0,43.17,0s14.88,5.79,20,28.49l-15.66,3.61,2,38.36-54.8-.43,1.18-36.36-13.7-4.7S179.5,231.05,194.42,226Z" style="fill:#DB3022"></path><path d="M194.42,226a50.08,50.08,0,0,0,43.17,0s14.88,5.79,20,28.49l-15.66,3.61,2,38.36-54.8-.43,1.18-36.36-13.7-4.7S179.5,231.05,194.42,226Z" style="fill:#fff;opacity:0.5"></path><polygon points="188.13 258.89 190.07 259.56 191.19 246.1 188.13 258.89" style="opacity:0.2"></polygon><polygon points="240.02 242.56 241.9 258.05 244.95 257.35 240.02 242.56" style="opacity:0.2"></polygon><ellipse cx="216.04" cy="247.85" rx="17.15" ry="7" style="fill:#DB3022"></ellipse><path d="M259,203.6a4.43,4.43,0,0,1,.2-1h-1.61a6,6,0,0,0-.17,1C257.35,204.61,258.93,204.6,259,203.6Z" style="fill:#263238"></path><path d="M285.24,228.1,264,215.36v-6.07c4.4-.94,6.91-6.19,3.31-9.79a5.48,5.48,0,0,0-7.94,0h3.19a3.72,3.72,0,0,1,3.55,1.21,4.21,4.21,0,0,1-2.9,7.14.79.79,0,0,0-.78.78v6.74l-21.2,12.74c-.87.52-.08,1.89.79,1.36l10.35-6.22,7.52-4.52c.85-.51,1.78-1,2.59-1.55.17-.12.61-.32.83-.46.53.44,2.38,1.5,2.88,1.8l7.42,4.46,10.8,6.49C285.32,230,286.11,228.62,285.24,228.1Z" style="fill:#263238"></path><path d="M309.71,303.18s-2.1-33.68-5.89-56.84c-1.46-8.9-4.6-15-7.91-19.1a22.09,22.09,0,0,0-17.22-8.16H271.2l-4.36,4.56h-7.35l-3.85-4.56h-4.33a26.1,26.1,0,0,0-22.8,13.27,64.43,64.43,0,0,0-6.44,17.78,278.76,278.76,0,0,0-5.82,52.63l13.9,1.68,7.33-51.69-.84,61.78,54.8.43-2.29-63.78,6.67,53.26Z" style="fill:#263238"></path><path d="M236.56,243.66c-.52,7-10.5,59.88-10.5,59.88l2.61.72,1.48.18,7.33-51.69S237.09,236.65,236.56,243.66Z" style="opacity:0.2"></path><path d="M299.16,304.14c-1.38-9.66-4.87-34.08-7-47.36-2.62-16.8-3.06-14.89-3.06-14.89v9.29l6.67,53.26Z" style="opacity:0.2"></path><polygon points="255.51 217.91 263.24 222.93 270.29 217.91 274.7 218.76 269.61 228.78 263.24 225.04 256.19 228.78 252.29 218.76 255.51 217.91" style="fill:#263238"></polygon><polygon points="255.51 217.91 263.24 222.93 270.29 217.91 274.7 218.76 269.61 228.78 263.24 225.04 256.19 228.78 252.29 218.76 255.51 217.91" style="fill:#fff;opacity:0.2"></polygon><polygon points="215.34 300.86 231.03 302.86 230.5 306.23 215.34 304.33 215.34 300.86" style="fill:#263238"></polygon><polygon points="215.34 300.86 231.03 302.86 230.5 306.23 215.34 304.33 215.34 300.86" style="fill:#fff;opacity:0.2"></polygon><polygon points="310.37 301.14 294.63 302.58 295.03 305.97 310.61 304.58 310.37 301.14" style="fill:#263238"></polygon><polygon points="310.37 301.14 294.63 302.58 295.03 305.97 310.61 304.58 310.37 301.14" style="fill:#fff;opacity:0.2"></polygon><path d="M264.25,243.66a1.27,1.27,0,1,1-1.27-1.27A1.27,1.27,0,0,1,264.25,243.66Z" style="fill:#fff;opacity:0.7000000000000001"></path><path d="M264.77,263.25A1.28,1.28,0,1,1,263.5,262,1.27,1.27,0,0,1,264.77,263.25Z" style="fill:#fff;opacity:0.7000000000000001"></path><path d="M265.53,283.54a1.28,1.28,0,1,1-1.28-1.27A1.28,1.28,0,0,1,265.53,283.54Z" style="fill:#fff;opacity:0.7000000000000001"></path><path d="M265.53,304.29a1.28,1.28,0,1,1-1.28-1.27A1.27,1.27,0,0,1,265.53,304.29Z" style="fill:#fff;opacity:0.7000000000000001"></path><path d="M290.1,203.6a5.11,5.11,0,0,1,.2-1h-1.61a7.39,7.39,0,0,0-.16,1C288.44,204.61,290,204.6,290.1,203.6Z" style="fill:#263238"></path><path d="M316.32,228.1l-21.19-12.74v-6.07c4.39-.94,6.9-6.19,3.3-9.79a5.46,5.46,0,0,0-7.93,0h3.18a3.74,3.74,0,0,1,3.56,1.21,4.21,4.21,0,0,1-2.9,7.14.8.8,0,0,0-.79.78v6.74l-21.2,12.74c-.86.52-.07,1.89.8,1.36l10.34-6.22,7.52-4.52c.86-.51,1.78-1,2.59-1.55.17-.12.61-.32.83-.46.53.44,2.38,1.5,2.88,1.8l7.43,4.46q5.38,3.25,10.79,6.49C316.4,230,317.19,228.62,316.32,228.1Z" style="fill:#263238"></path><path d="M269.19,228.78l6.09-5.14s8.43,7.27,19.06,6.13a52.9,52.9,0,0,0,19.06-6.13l5.09,3.77s-7.3,11.39,1.23,25.28l-1.28,42.64H271l-1.88-43.59S279,239.61,269.19,228.78Z" style="fill:#DB3022"></path><polygon points="319.5 260.04 319.4 259.94 311.04 268.29 302.69 259.94 294.34 268.29 285.99 259.94 277.63 268.29 269.45 260.1 269.78 267.85 277.63 275.7 285.99 267.35 294.34 275.7 302.69 267.35 311.04 275.7 319.27 267.47 319.5 260.04" style="fill:#fff;opacity:0.5"></polygon><polygon points="319.27 267.47 311.04 275.7 302.69 267.35 294.34 275.7 285.99 267.35 277.63 275.7 269.78 267.85 270.12 275.59 277.63 283.11 285.99 274.75 294.34 283.11 302.69 274.75 311.04 283.11 319.04 275.11 319.27 267.47" style="fill:#fff;opacity:0.7000000000000001"></polygon><polygon points="319.04 275.11 311.04 283.11 302.69 274.75 294.34 283.11 285.99 274.75 277.63 283.11 270.12 275.59 270.45 283.33 277.63 290.52 285.99 282.16 294.34 290.52 302.69 282.16 311.04 290.52 318.81 282.75 319.04 275.11" style="fill:#fff;opacity:0.9"></polygon><rect x="211.54" y="170.54" width="57.23" height="19.99" rx="2.8" style="fill:#DB3022"></rect><rect x="238.16" y="189.52" width="4" height="9.97" style="fill:#DB3022"></rect><path d="M235.32,179.16V176l-1.56,2.61h-.55l-1.55-2.55v3.1h-1.14v-5.28h1l2,3.28,1.94-3.28h1v5.28Z" style="fill:#fff"></path><path d="M237.72,173.88H239v5.28h-1.23Z" style="fill:#fff"></path><path d="M245,173.88v5.28h-1l-2.63-3.2v3.2H240.2v-5.28h1l2.63,3.21v-3.21Z" style="fill:#fff"></path><path d="M247.39,174.88H245.7v-1h4.6v1h-1.69v4.28h-1.22Z" style="fill:#fff"></path><path d="M218.71,186.7a2.6,2.6,0,0,1-1-1,2.87,2.87,0,0,1,0-2.82,2.6,2.6,0,0,1,1-1,3.06,3.06,0,0,1,1.46-.35,3.13,3.13,0,0,1,1.25.24,2.39,2.39,0,0,1,.93.7l-.79.72a1.68,1.68,0,0,0-1.32-.62,1.72,1.72,0,0,0-.88.22,1.45,1.45,0,0,0-.6.6,1.75,1.75,0,0,0-.21.87,1.82,1.82,0,0,0,.21.88,1.57,1.57,0,0,0,.6.6,1.82,1.82,0,0,0,.88.21,1.68,1.68,0,0,0,1.32-.62l.79.72a2.42,2.42,0,0,1-.94.7,3.08,3.08,0,0,1-1.24.24A3,3,0,0,1,218.71,186.7Z" style="fill:#fff"></path><path d="M224.13,186.7a2.63,2.63,0,0,1-1.4-2.38,2.66,2.66,0,0,1,.37-1.4,2.7,2.7,0,0,1,1-1,3.33,3.33,0,0,1,3,0,2.77,2.77,0,0,1,1,1,2.7,2.7,0,0,1-1,3.78,3.33,3.33,0,0,1-3,0Zm2.33-.9a1.62,1.62,0,0,0,.59-.6,1.72,1.72,0,0,0,.22-.88,1.66,1.66,0,0,0-.22-.87,1.48,1.48,0,0,0-.59-.6,1.73,1.73,0,0,0-1.69,0,1.48,1.48,0,0,0-.59.6,1.66,1.66,0,0,0-.22.87,1.72,1.72,0,0,0,.22.88,1.62,1.62,0,0,0,.59.6,1.81,1.81,0,0,0,1.69,0Z" style="fill:#fff"></path><path d="M234.27,181.68V187h-1l-2.64-3.2V187h-1.2v-5.28h1l2.62,3.21v-3.21Z" style="fill:#fff"></path><path d="M235.52,181.68h2.4a3.34,3.34,0,0,1,1.52.33,2.43,2.43,0,0,1,1,.92,2.8,2.8,0,0,1,0,2.78,2.31,2.31,0,0,1-1,.92,3.34,3.34,0,0,1-1.52.33h-2.4Zm2.34,4.28a1.82,1.82,0,0,0,1.27-.44,1.6,1.6,0,0,0,.47-1.2,1.56,1.56,0,0,0-.47-1.19,1.78,1.78,0,0,0-1.27-.45h-1.11V186Z" style="fill:#fff"></path><path d="M241.76,181.68H243V187h-1.22Z" style="fill:#fff"></path><path d="M245.33,182.68h-1.69v-1h4.6v1h-1.69V187h-1.22Z" style="fill:#fff"></path><path d="M248.9,181.68h1.22V187H248.9Z" style="fill:#fff"></path><path d="M252.45,186.7a2.75,2.75,0,0,1-1-3.78,2.73,2.73,0,0,1,1-1,3.3,3.3,0,0,1,3,0,2.67,2.67,0,0,1,1.41,2.38,2.67,2.67,0,0,1-1.41,2.38,3.3,3.3,0,0,1-3,0Zm2.33-.9a1.7,1.7,0,0,0,.59-.6,1.82,1.82,0,0,0,.21-.88,1.75,1.75,0,0,0-.21-.87,1.55,1.55,0,0,0-.59-.6,1.66,1.66,0,0,0-.85-.22,1.6,1.6,0,0,0-.84.22,1.51,1.51,0,0,0-.6.6,1.75,1.75,0,0,0-.21.87,1.82,1.82,0,0,0,.21.88,1.64,1.64,0,0,0,.6.6,1.69,1.69,0,0,0,.84.21A1.76,1.76,0,0,0,254.78,185.8Z" style="fill:#fff"></path><path d="M262.59,181.68V187h-1l-2.63-3.2V187h-1.21v-5.28h1l2.63,3.21v-3.21Z" style="fill:#fff"></path></g><g id="freepik--character-2--inject-2"><path d="M392,244.43s-13,52.84-16,70.73c-2.91,17.63-7.46,71.09-7.46,71.09l13.86,2.13s8.42-52.07,13.86-68.6c4.14-12.57,18.67-34.62,21.68-47.27,1.57-6.57,0-27,0-27Z" style="fill:#DB3022"></path><polygon points="371.12 387.58 369.56 401.68 376.76 402.53 379.27 388.43 371.12 387.58" style="fill:#ffb573"></polygon><path d="M365.31,401.49a3.57,3.57,0,0,1-2.37-.89.76.76,0,0,1,.11-.85,1,1,0,0,1,.66-.39c1.42-.23,4.13,1.71,4.25,1.8a.18.18,0,0,1,.07.21.2.2,0,0,1-.17.15A15.5,15.5,0,0,1,365.31,401.49Zm-1.15-1.75a1.63,1.63,0,0,0-.38,0,.56.56,0,0,0-.41.23c-.17.23-.13.35-.08.43.32.58,2.4.81,4,.78A8.94,8.94,0,0,0,364.16,399.74Z" style="fill:#DB3022"></path><path d="M367.83,401.51a.08.08,0,0,1-.08,0c-.94-.54-2.74-2.54-2.47-3.45.05-.22.24-.47.79-.47a1.46,1.46,0,0,1,1.05.45c1,1,.95,3.22.95,3.33a.16.16,0,0,1-.24.16ZM366.16,398l-.11,0c-.36,0-.4.13-.42.18-.1.56,1.05,2.1,2,2.81a4.65,4.65,0,0,0-.83-2.65,1.06,1.06,0,0,0-.65-.32Z" style="fill:#DB3022"></path><path d="M368.82,400.45l9,.94a.72.72,0,0,1,.64.65l.86,7.5a1.21,1.21,0,0,1-1,1.35H378c-3.24-.4-6.11-.88-10.16-1.3-4.77-.5-3.62.2-9.24-.31-3.39-.31-3.61-4.22-2.15-4.26,6.65-.14,7.54-2,10.31-4.13A3,3,0,0,1,368.82,400.45Z" style="fill:#263238"></path><path d="M402,272.11c-6.93,15.34-6.15,39.73-5.69,47.58,2.25-6.76,7.46-16.24,12.27-25.52l-.72-8.38S410.35,253.63,402,272.11Z" style="opacity:0.1"></path><polygon points="366.87 383.23 366.76 388.48 383.57 391.05 384.77 386.12 366.87 383.23" style="fill:#DB3022"></polygon><polygon points="366.87 383.23 366.76 388.48 383.57 391.05 384.77 386.12 366.87 383.23" style="fill:#fff;opacity:0.30000000000000004"></polygon><path d="M401.64,244.82s-1.35,54.09-1.07,72.12,3.32,71.44,3.32,71.44H418s1.6-53.63,3.2-71.44,9-41.59-3.2-71.45Z" style="fill:#DB3022"></path><polygon points="407.03 388.92 407.03 402.42 414.42 402.42 415.39 388.92 407.03 388.92" style="fill:#ffb573"></polygon><path d="M402.92,402.5a3.52,3.52,0,0,1-2.43-.66.72.72,0,0,1,0-.85,1.06,1.06,0,0,1,.62-.46c1.39-.37,4.28,1.31,4.4,1.39a.2.2,0,0,1,.1.2.19.19,0,0,1-.16.16A14.47,14.47,0,0,1,402.92,402.5Zm-1.3-1.63a1.58,1.58,0,0,0-.38,0,.56.56,0,0,0-.39.28c-.15.24-.1.36,0,.43.38.54,2.47.57,4,.39A9.21,9.21,0,0,0,401.62,400.87Z" style="fill:#DB3022"></path><path d="M405.43,402.28a.08.08,0,0,1-.08,0c-1-.45-3-2.26-2.78-3.2,0-.22.19-.49.74-.54a1.45,1.45,0,0,1,1.09.34c1.05.88,1.25,3.12,1.26,3.23a.19.19,0,0,1-.09.17A.17.17,0,0,1,405.43,402.28Zm-2-3.38h-.12c-.35,0-.38.17-.39.22-.06.56,1.24,2,2.26,2.6a4.62,4.62,0,0,0-1.08-2.56,1,1,0,0,0-.67-.25Z" style="fill:#DB3022"></path><path d="M406.32,401.13l9.07.08a.73.73,0,0,1,.7.58l1.58,7.39a1.21,1.21,0,0,1-.93,1.44,1.07,1.07,0,0,1-.25,0c-3.27-.09-6.17-.29-10.24-.32-4.8,0-3.59.54-9.23.57-3.4,0-4-3.86-2.55-4,6.61-.77,7.31-2.76,9.88-5.1A2.89,2.89,0,0,1,406.32,401.13Z" style="fill:#263238"></path><polygon points="401.68 385.56 402.28 390.78 419.29 391.04 419.81 385.99 401.68 385.56" style="fill:#DB3022"></polygon><polygon points="401.68 385.56 402.28 390.78 419.29 391.04 419.81 385.99 401.68 385.56" style="fill:#fff;opacity:0.30000000000000004"></polygon><path d="M412.13,195.31l8,1.82c-.62-3.47,1-8,2.38-11.29l-9.64,5.29C412.94,193,412.9,194.36,412.13,195.31Z" style="fill:#ffb573"></path><path d="M418.6,188l-5.68,3.17a13.36,13.36,0,0,1-.08,2.45c1.89.12,5.08-.84,5.88-2.75A5.82,5.82,0,0,0,418.6,188Z" style="opacity:0.2;isolation:isolate"></path><path d="M429.61,179.65c-3.36,6.62-4.65,9.49-9.6,11.48-7.44,3-14.83-2.59-13.51-10.08,1.2-6.74,6.53-16.46,14.35-16.23a10.11,10.11,0,0,1,8.76,14.83Z" style="fill:#ffb573"></path><path d="M418,176.72c-.25.55-.74.87-1.09.72s-.46-.74-.23-1.29.74-.87,1.09-.72S418.21,176.18,418,176.72Z" style="fill:#263238"></path><path d="M411.75,174c-.24.56-.73.87-1.09.72s-.46-.74-.22-1.29.73-.88,1.09-.72S412,173.46,411.75,174Z" style="fill:#263238"></path><path d="M411.67,172.83l-1.16-1S410.74,173.21,411.67,172.83Z" style="fill:#263238"></path><path d="M413.25,175.86a16.67,16.67,0,0,1-3.52,2.67,2.66,2.66,0,0,0,1.82,1.23Z" style="fill:#ed893e"></path><path d="M413.62,183.23a4.9,4.9,0,0,1-.84-.29.18.18,0,0,1-.1-.23h0a.18.18,0,0,1,.24-.09,4.83,4.83,0,0,0,4.32-.16.17.17,0,0,1,.19.29A4.93,4.93,0,0,1,413.62,183.23Z" style="fill:#263238"></path><path d="M421.07,176.56a.36.36,0,0,1-.27-.33,4.19,4.19,0,0,0-1.89-2.76.37.37,0,0,1-.12-.5.35.35,0,0,1,.48-.11h0a4.84,4.84,0,0,1,2.23,3.34.35.35,0,0,1-.33.37h-.11Z" style="fill:#263238"></path><path d="M411.13,170.32a.4.4,0,0,1-.26-.26.37.37,0,0,1,.25-.44,3.49,3.49,0,0,1,3.22.59.34.34,0,0,1,.05.47l0,0a.35.35,0,0,1-.49,0h0a2.82,2.82,0,0,0-2.53-.41A.38.38,0,0,1,411.13,170.32Z" style="fill:#263238"></path><path d="M417.92,175.59l-1.16-1S417,175.92,417.92,175.59Z" style="fill:#263238"></path><path d="M426.79,173.73a11.07,11.07,0,0,1-10.94-4.27l4.27.68-9.61-4.27a19.46,19.46,0,0,1,7.48-3.33l-2.14-1.46s15.21-3.07,16.54,11.73c0,0,.66,3.9-1.61,6.39S426.79,173.73,426.79,173.73Z" style="fill:#263238"></path><path d="M428.35,175.14s-3.52,4.6-2.41,9.33c0,0,6-3.64,6.39-8.61C432.79,169.46,428.35,175.14,428.35,175.14Z" style="fill:#263238"></path><path d="M429.19,185.68a5.29,5.29,0,0,1-3.68,1.71c-1.87.05-2.37-1.73-1.47-3.27.82-1.38,2.76-3.07,4.47-2.43a2.41,2.41,0,0,1,1.29,3.14A2.37,2.37,0,0,1,429.19,185.68Z" style="fill:#ffb573"></path><path d="M427.88,186.71a4.32,4.32,0,0,1,.45,3.15c-.25,1-1.12,2.35-2.27,1.45-1.33-1.05-1.39-5.1.73-5.31.31,0,.31-.51,0-.48-2.65.27-2.76,5-.9,6.28a1.69,1.69,0,0,0,2.45-.7,4.69,4.69,0,0,0,0-4.63.24.24,0,0,0-.42.24Z" style="fill:#263238"></path><g style="opacity:0.5"><path d="M427.88,186.71a4.32,4.32,0,0,1,.45,3.15c-.25,1-1.12,2.35-2.27,1.45-1.33-1.05-1.39-5.1.73-5.31.31,0,.31-.51,0-.48-2.65.27-2.76,5-.9,6.28a1.69,1.69,0,0,0,2.45-.7,4.69,4.69,0,0,0,0-4.63.24.24,0,0,0-.42.24Z" style="fill:#fff"></path></g><path d="M363.05,195.2l-5.69-5.69,1-5.48a2.87,2.87,0,0,0-1-2.69l-2.11-1.78-.24-.67a2.87,2.87,0,0,0-4.49-1.27h0a3,3,0,0,0-.7.81l-2.48,4.31a2.84,2.84,0,0,0-.25,2.28l1.4,4.49,3.91,2.31,5.34,7.64Z" style="fill:#ffb573"></path><path d="M400,198a1.46,1.46,0,0,0-2-1.05c-2.19.92-7.23,3.16-18.62,8.56-3.38,1.6-11.45-5.8-16.89-13L355.23,199s13,17.33,21.32,17.51,25.06-11,25.06-11Z" style="fill:#263238"></path><path d="M387.2,213.55a104.32,104.32,0,0,0,11.42-6.14v-2.88l-3.88-4A68.12,68.12,0,0,0,387.2,213.55Z" style="opacity:0.5"></path><path d="M390.24,248.16S389,227.37,392,211.55s3.55-17.77,21.32-13.33,18.31,3.38,15.64,12.09c-2.29,7.48-6.57,29-8.35,39.09Z" style="fill:#263238"></path><path d="M409.42,197.29l1-1.73a4.18,4.18,0,0,0,.58-2.13v-.94a.61.61,0,0,1,.86-.56,27,27,0,0,0,9.11,2.44.84.84,0,0,1,.72,1.18l-.5,1.14a3.53,3.53,0,0,0-.3,1.43l0,2A12.3,12.3,0,0,1,409.42,197.29Z" style="fill:#263238"></path><path d="M410.31,198s2.17,3.3,9.28,2.35C419.59,200.37,411.15,205.34,410.31,198Z" style="opacity:0.5"></path><path d="M416.9,252.25l-5,4.44h-5.34a5.47,5.47,0,0,0-2.94.85l-1.87,1.16a4.23,4.23,0,0,0-1.26,5.95l.71,1.06a4.24,4.24,0,0,0,6.28.83l1.51-1.32.93-.23a5.44,5.44,0,0,0,3.69-3.14h0l6.11-4.45Z" style="fill:#ffb573"></path><path d="M424.88,201.6s10.23,1.59,10.57,10,3,22.51,1,29.72S419,260,419,260l-4.3-7.49s12.51-9.28,12.52-19.6S420.49,200.15,424.88,201.6Z" style="fill:#263238"></path><path d="M426,222.21a71.44,71.44,0,0,1,1.18,10.66,13.44,13.44,0,0,1-.27,2.61c1.62-5.56,1.5-16.16,1.26-22.41C427.55,215.56,426.81,218.73,426,222.21Z" style="opacity:0.5"></path><path d="M377.32,212Q366.56,205.5,355.79,199v-6.17c4.46-1,7-6.28,3.36-9.94-3.87-3.87-9.61-.78-10.06,4.16-.09,1,1.51,1,1.6,0,.32-3.52,4.53-5.85,7.25-2.94A4.28,4.28,0,0,1,355,191.4a.81.81,0,0,0-.8.8V199L332.67,212a.8.8,0,0,0,.8,1.38L344,207l7.64-4.59c.86-.52,1.8-1,2.63-1.58.17-.12.61-.32.84-.47.54.45,2.41,1.53,2.93,1.84l7.53,4.53q5.49,3.28,11,6.59A.8.8,0,0,0,377.32,212Z" style="fill:#263238"></path><path d="M377.32,212Q366.56,205.5,355.79,199v-6.17c4.46-1,7-6.28,3.36-9.94-3.87-3.87-9.61-.78-10.06,4.16-.09,1,1.51,1,1.6,0,.32-3.52,4.53-5.85,7.25-2.94A4.28,4.28,0,0,1,355,191.4a.81.81,0,0,0-.8.8V199L332.67,212a.8.8,0,0,0,.8,1.38L344,207l7.64-4.59c.86-.52,1.8-1,2.63-1.58.17-.12.61-.32.84-.47.54.45,2.41,1.53,2.93,1.84l7.53,4.53q5.49,3.28,11,6.59A.8.8,0,0,0,377.32,212Z" style="fill:#fff;opacity:0.5"></path><path d="M343.35,204.53s10.16,7.07,25.21,0c0,0,15.31,6.53,16.11,13.73s2.53,34,2.53,34H375.61l.53,37.45H334.42l1.47-37.45H321.23s3.5-34.86,7.21-39.23S343.35,204.53,343.35,204.53Z" style="fill:#DB3022"></path><path d="M343.35,204.53s-1.35.5-3.27,1.33c1.89,1.91,6.37,5.21,14.91,5.47a26.53,26.53,0,0,0,16.74-5.28c-1.87-1-3.17-1.52-3.17-1.52C353.51,211.6,343.35,204.53,343.35,204.53Z" style="fill:#fff;opacity:0.30000000000000004"></path><polygon points="336.12 232.6 332.28 252.12 335.89 252.25 336.58 232.6 336.12 232.6" style="opacity:0.2"></polygon><polygon points="319.63 250.12 318.83 254.25 335.78 254.9 335.78 250.78 319.63 250.12" style="fill:#DB3022"></polygon><polygon points="319.63 250.12 318.83 254.25 335.78 254.9 335.78 250.78 319.63 250.12" style="fill:#fff;opacity:0.30000000000000004"></polygon><polygon points="375 232.6 375.61 252.25 377.7 252.12 375.18 232.6 375 232.6" style="opacity:0.2"></polygon><polygon points="375.61 250.12 375.61 254.11 389.07 254.11 388.54 250.12 375.61 250.12" style="fill:#DB3022"></polygon><polygon points="375.61 250.12 375.61 254.11 389.07 254.11 388.54 250.12 375.61 250.12" style="fill:#fff;opacity:0.30000000000000004"></polygon><polygon points="376.03 281.88 334.72 281.88 334.6 285.08 376.08 285.08 376.03 281.88" style="fill:#fff;opacity:0.30000000000000004"></polygon><polygon points="355.23 180.29 355.23 184.94 351.18 188.88 349.01 188.36 348.03 184.58 351.11 180.75 355.23 180.29" style="fill:#ffb573"></polygon></g><g id="freepik--character-1--inject-2"><polygon points="53.5 406.24 50.63 421.85 42.08 421.85 43.73 406.24 53.5 406.24" style="fill:#ce7a63"></polygon><path d="M52.44,421.7a.24.24,0,0,1-.18-.19.2.2,0,0,1,.11-.23c.14-.09,3.48-2,5.08-1.61a1.26,1.26,0,0,1,.73.53.87.87,0,0,1,0,1c-.39.51-1.62.74-2.82.75A16.13,16.13,0,0,1,52.44,421.7Zm.74-.31c1.79.2,4.21.16,4.65-.46.06-.08.12-.22,0-.5a.62.62,0,0,0-.45-.32,2.1,2.1,0,0,0-.43-.05A10.43,10.43,0,0,0,53.18,421.39Z" style="fill:#DB3022"></path><path d="M52.32,421.69a.23.23,0,0,1-.1-.21c0-.12.24-2.71,1.46-3.73a1.7,1.7,0,0,1,1.26-.4c.63.06.83.37.85.63.22,1.08-2.07,3.19-3.22,3.71h-.09A.29.29,0,0,1,52.32,421.69Zm2.47-3.91a1.19,1.19,0,0,0-.78.3A5.28,5.28,0,0,0,52.76,421c1.18-.71,2.68-2.35,2.62-3,0,0-.05-.22-.46-.25Z" style="fill:#DB3022"></path><path d="M51.45,420.36l-10.49.1a.85.85,0,0,0-.82.67l-1.81,8.54a1.41,1.41,0,0,0,1.07,1.68,1.36,1.36,0,0,0,.29,0c3.78-.1,7.14-.34,11.85-.37,5.55-.05,4.15.62,10.68.66,3.93,0,4.61-4.46,2.94-4.67-7.64-.89-8.45-3.19-11.42-5.9A3.44,3.44,0,0,0,51.45,420.36Z" style="fill:#263238"></path><polygon points="42.78 415.24 51.69 416.1 52.58 411.24 44.48 409.32 43.31 410.13 42.78 415.24" style="opacity:0.2"></polygon><polygon points="89.36 406.24 88.59 421.85 80.04 421.85 79.58 406.24 89.36 406.24" style="fill:#ce7a63"></polygon><path d="M90.4,421.7a.24.24,0,0,1-.18-.19.21.21,0,0,1,.1-.23c.15-.09,3.49-2,5.09-1.61a1.26,1.26,0,0,1,.73.53.87.87,0,0,1,0,1c-.39.51-1.62.74-2.82.75A16.13,16.13,0,0,1,90.4,421.7Zm.74-.31c1.79.2,4.21.16,4.65-.46.06-.08.12-.22-.05-.5a.62.62,0,0,0-.45-.32,2.12,2.12,0,0,0-.44-.05A10.45,10.45,0,0,0,91.14,421.39Z" style="fill:#DB3022"></path><path d="M90.28,421.69a.23.23,0,0,1-.1-.21c0-.12.24-2.71,1.46-3.73a1.7,1.7,0,0,1,1.26-.4c.63.06.83.37.85.63.22,1.08-2.07,3.19-3.22,3.71h-.09A.29.29,0,0,1,90.28,421.69Zm2.47-3.91a1.19,1.19,0,0,0-.78.3A5.28,5.28,0,0,0,90.72,421c1.18-.71,2.68-2.35,2.62-3,0,0,0-.22-.46-.25Z" style="fill:#DB3022"></path><path d="M89.41,420.36l-10.49.1a.85.85,0,0,0-.82.67l-1.81,8.54a1.41,1.41,0,0,0,1.06,1.68l.3,0c3.78-.1,7.14-.34,11.85-.37,5.55-.05,4.15.62,10.68.66,3.93,0,4.61-4.46,2.94-4.67-7.64-.89-8.46-3.19-11.43-5.9A3.4,3.4,0,0,0,89.41,420.36Z" style="fill:#263238"></path><polygon points="79.87 416.1 88.87 416.1 89.17 410.13 87.13 409.32 81.49 409.72 79.7 410.25 79.87 416.1" style="opacity:0.2"></polygon><path d="M91.73,264.94s3.19,53.69,3.15,71.6c0,18.84-3.66,75.25-3.66,75.25H76.87s-.19-55.18-1.75-73.5c-1.33-15.51-9.1-61.6-9.1-61.6V264.94Z" style="fill:#263238"></path><polygon points="75.68 408.3 75.8 414.06 92.67 414.25 92.82 408.58 75.68 408.3" style="fill:#263238"></polygon><path d="M73.74,326.55c3.67-24.2,1.94-54.06,1.94-54.06L67.88,288C69.6,298.56,72.13,314.49,73.74,326.55Z" style="opacity:0.4"></path><polygon points="75.68 408.3 75.8 414.06 92.67 414.25 92.82 408.58 75.68 408.3" style="fill:#fff;opacity:0.30000000000000004"></polygon><path d="M77,264.94s-7.65,56.62-10.49,75.45c-2.7,17.89-11.64,71.4-11.64,71.4l-14.35-1.05s5.14-54.55,5.95-72.8c.58-13.28.25-39.37.7-53.2.35-10.85,1-19.8,1-19.8Z" style="fill:#263238"></path><polygon points="39.59 407.16 38.98 412.93 55.78 414.33 56.66 408.73 39.59 407.16" style="fill:#263238"></polygon><polygon points="39.59 407.16 38.98 412.93 55.78 414.33 56.66 408.73 39.59 407.16" style="fill:#fff;opacity:0.30000000000000004"></polygon><path d="M77.78,190.07s6.83-1.57,14,7.87c5.18,6.84,21.38,24.15,18.23,31.68-2.4,5.72-8,4.9-17.67-7.53S72.35,188.2,77.78,190.07Z" style="fill:#DB3022"></path><path d="M77.78,190.07s6.83-1.57,14,7.87c5.18,6.84,21.38,24.15,18.23,31.68-2.4,5.72-8,4.9-17.67-7.53S72.35,188.2,77.78,190.07Z" style="fill:#fff;opacity:0.7000000000000001"></path><path d="M101.92,223.18s-12,11.85-3,14.52c8.57,2.54,11-4.47,11.4-9.62C110.61,224.58,109.45,219.68,101.92,223.18Z" style="fill:#DB3022"></path><path d="M101.92,223.18s-12,11.85-3,14.52c8.57,2.54,11-4.47,11.4-9.62C110.61,224.58,109.45,219.68,101.92,223.18Z" style="fill:#fff;opacity:0.7000000000000001"></path><path d="M48.48,267.93a1.92,1.92,0,0,1-1.75-2c.39-7.4,1.64-35.34-.62-49.61-2.63-16.54-4.2-24.68,13.65-27s29.13.26,31.76,13.39c2.25,11.28,1.41,51.26,1.13,62.27a3.3,3.3,0,0,1-2.94,3.19C84,268.72,70,269.69,48.48,267.93Z" style="fill:#DB3022"></path><path d="M48.48,267.93a1.92,1.92,0,0,1-1.75-2c.39-7.4,1.64-35.34-.62-49.61-2.63-16.54-4.2-24.68,13.65-27s29.13.26,31.76,13.39c2.25,11.28,1.41,51.26,1.13,62.27a3.3,3.3,0,0,1-2.94,3.19C84,268.72,70,269.69,48.48,267.93Z" style="fill:#fff;opacity:0.5"></path><path d="M76.21,192.64l.89-2-1.39-2.3-2.36.24a8.08,8.08,0,0,1-.06-2.36,19.51,19.51,0,0,1,.39-2.41l-5.92-5-4.34-3.6c1,4.55,2.13,11.95.1,16.14l10.55,6,3.48-4.15A8.33,8.33,0,0,1,76.21,192.64Z" style="fill:#ce7a63"></path><path d="M56,189.94s8.36-9.15,17.81,6.43a58.28,58.28,0,0,0-.41-7.87s3.24-2.52,5.76,1.27c1.4,2.11.33,6.07-5,8.17A180.63,180.63,0,0,0,56,189.94Z" style="fill:#DB3022"></path><path d="M73.68,183.57a19.51,19.51,0,0,0-.39,2.41c-2.23-.45-5.56-2.43-5.87-4.93a10.47,10.47,0,0,1,.34-2.43Z" style="opacity:0.2;isolation:isolate"></path><path d="M81.6,160.71s6.45,3.22,4.74,5.92-4.89-1.12-4.89-1.12Z" style="fill:#263238"></path><path d="M63.86,164.38c-.9,7.11-1.8,11.21,1.08,15.57a9.32,9.32,0,0,0,16.42-1.47c2.71-6,3.66-16.6-2.62-20.85a9.46,9.46,0,0,0-14.88,6.75Z" style="fill:#ce7a63"></path><path d="M74.14,170.81c-.11.58.1,1.1.47,1.18s.76-.31.9-.9-.1-1.1-.47-1.18S74.24,170.24,74.14,170.81Z" style="fill:#263238"></path><path d="M80.8,172.08c-.1.57.11,1.1.48,1.17s.76-.31.9-.9a.92.92,0,0,0-.48-1.18C81.33,171.09,80.91,171.5,80.8,172.08Z" style="fill:#263238"></path><path d="M78.19,172a21.66,21.66,0,0,0,1.48,4.71,3,3,0,0,1-2.49,0Z" style="fill:#ba4d3c"></path><path d="M76.34,180.38a5.06,5.06,0,0,1-3.72-1.14.19.19,0,0,1,0-.24.16.16,0,0,1,.23-.05h0a4.8,4.8,0,0,0,4.09,1,.17.17,0,0,1,.2.12h0a.18.18,0,0,1-.13.21C76.76,180.32,76.55,180.36,76.34,180.38Z" style="fill:#263238"></path><path d="M72.65,168.41a.3.3,0,0,1-.15,0,.34.34,0,0,1-.08-.47h0a3.26,3.26,0,0,1,2.7-1.41.33.33,0,0,1,.31.35v0a.35.35,0,0,1-.36.31,2.61,2.61,0,0,0-2.15,1.13A.31.31,0,0,1,72.65,168.41Z" style="fill:#263238"></path><path d="M83.91,169.88a.35.35,0,0,1-.27-.17,2.8,2.8,0,0,0-2-1.45.33.33,0,0,1-.31-.37h0a.36.36,0,0,1,.36-.32h0a3.44,3.44,0,0,1,2.57,1.81.35.35,0,0,1-.12.47A.42.42,0,0,1,83.91,169.88Z" style="fill:#263238"></path><path d="M62.8,156.14s-9,1.61-3.95,4.92c0,0-5.28,3.9,1,4.84,0,0-1.88,5.17,4.25,3.25,0,0,5.42.85,2.76-7,0,0,8.28,2.13,10.91-1.15,0,0,9,6.29,10.41.48,1.08-4.49-4.41-4.64-4.41-4.64s2.18-3.72-.4-5.16-4.92.63-4.92.63,2-3.69-1.42-3.78c-2.89-.08-4.92,3-4.92,3S60.25,149.38,62.8,156.14Z" style="fill:#263238"></path><path d="M59.94,170.36a7.55,7.55,0,0,0,2.78,4.34c1.8,1.33,3.16-.28,3.06-2.54-.09-2-1.13-5.18-3.13-5.59S59.46,168.19,59.94,170.36Z" style="fill:#ce7a63"></path><path d="M86.28,208.34l-1.61,17.77a2,2,0,0,1-1.26,1.69c-1.86.73-5.45,2.11-7,2.46a81.38,81.38,0,0,1-8.28.9,2,2,0,0,0-1.85,1.68h0A2,2,0,0,0,68,235.17l26,4.34a2,2,0,0,0,2.31-1.6l5.23-26.52A2,2,0,0,0,100,209l-11.26-2.47A2,2,0,0,0,86.28,208.34Z" style="fill:#263238"></path><path d="M72.4,237.56h7.51a2.19,2.19,0,0,0,1.15-.32l4-2.5a2.25,2.25,0,0,1,1.15-.33h1.61a2.39,2.39,0,0,0,.53-.06l2.14-.54a2.2,2.2,0,0,1,2.15.66h0a2.16,2.16,0,0,1,.36,2.36l-2.5,5.49a2.17,2.17,0,0,1-2,1.28H83.81l-.33,0-4.68-.72a2,2,0,0,0-.55,0l-5.85.6A2.17,2.17,0,0,1,70,241l.22-1.53A2.19,2.19,0,0,1,72.4,237.56Z" style="fill:#ce7a63"></path><path d="M52.41,191.32c-1.75,0-9.1-.53-13.65,18.37s-4.55,33.08,4,35.35,25.82,3.85,25.82,0l2.83-.21a2,2,0,0,0,1.8-1.94V238a2,2,0,0,0-2-2l-1.58.08s0-2.1-3.9-2.28-17,2-17.21-2.24S61.16,191.31,52.41,191.32Z" style="fill:#DB3022"></path><path d="M52.41,191.32c-1.75,0-9.1-.53-13.65,18.37s-4.55,33.08,4,35.35,25.82,3.85,25.82,0l2.83-.21a2,2,0,0,0,1.8-1.94V238a2,2,0,0,0-2-2l-1.58.08s0-2.1-3.9-2.28-17,2-17.21-2.24S61.16,191.31,52.41,191.32Z" style="fill:#fff;opacity:0.7000000000000001"></path><path d="M100.66,224.16,98.07,226a1.48,1.48,0,0,0-.62,1l-.78,5.24-1.27,1.33a1.5,1.5,0,0,0,0,2.09l.28.27a1.47,1.47,0,0,0,1.41.37l2.55-.66a1.45,1.45,0,0,0,1-.8l2.71-5.72a1.43,1.43,0,0,0,.15-.64v-2.65a1.49,1.49,0,0,0-.56-1.16l-.5-.41A1.49,1.49,0,0,0,100.66,224.16Z" style="fill:#ce7a63"></path></g></svg>