<svg xmlns="http://www.w3.org/2000/svg" viewBox="0 0 750 500"><g id="freepik--background-complete--inject-9"><rect x="662.54" y="277.55" width="60.82" height="16.77" style="fill:#f5f5f5"></rect><path d="M46.47,208.34h.35a9.79,9.79,0,0,0,9.37-6.93l10.1-32.91H26.5l10.64,33A9.8,9.8,0,0,0,46.47,208.34Z" style="fill:#e0e0e0"></path><path d="M29.28,166.25c.35.12,11.14,35.05,11.14,35.05h5.22V166.25Z" style="fill:#fafafa"></path><polygon points="48.19 166.25 48.19 201.3 53.76 201.3 63.86 166.25 48.19 166.25" style="fill:#fafafa"></polygon><circle cx="45.94" cy="131.41" r="7.15" style="fill:#e0e0e0"></circle><path d="M63.83,169c3.38,0,4.18-2.52,4.18-4.39,0-1-1.2-2.56-2.33-4A59.44,59.44,0,0,0,58,153H52.45l-.06-3s2.78-.59,3.26-2-7.48-4.16-7.48-4.16.76-3-2.07-3-2.27,3-2.27,3c-.86,1.14-7.12,1.71-7.41,3.71s3.71,2.56,3.71,2.56V153h-5.7s-5.12,5.12-8.26,8.54,0,7.4,0,7.4Z" style="fill:#e0e0e0"></path><path d="M46.4,148.38a74.1,74.1,0,0,1-.26-8.86,74.21,74.21,0,0,1,.26-8.87,76.82,76.82,0,0,1,.26,8.87A76.71,76.71,0,0,1,46.4,148.38Z" style="fill:#e0e0e0"></path><path d="M698.25,208.34h.35a9.8,9.8,0,0,0,9.37-6.93l10.1-32.91H678.28l10.64,33A9.8,9.8,0,0,0,698.25,208.34Z" style="fill:#e0e0e0"></path><path d="M681.06,166.25c.35.12,11.14,35.05,11.14,35.05h5.22V166.25Z" style="fill:#fafafa"></path><polygon points="699.97 166.25 699.97 201.3 705.54 201.3 715.64 166.25 699.97 166.25" style="fill:#fafafa"></polygon><circle cx="697.72" cy="131.41" r="7.15" style="fill:#e0e0e0"></circle><path d="M715.61,169c3.38,0,4.18-2.52,4.18-4.39,0-1-1.2-2.56-2.33-4a59.44,59.44,0,0,0-7.71-7.55h-5.52l-.06-3s2.78-.59,3.26-2-7.48-4.16-7.48-4.16.76-3-2.07-3-2.27,3-2.27,3c-.86,1.14-7.12,1.71-7.41,3.71s3.7,2.56,3.7,2.56V153h-5.69s-5.13,5.12-8.26,8.54,0,7.4,0,7.4Z" style="fill:#e0e0e0"></path><path d="M698.18,148.38a74.1,74.1,0,0,1-.26-8.86,74.21,74.21,0,0,1,.26-8.87,76.82,76.82,0,0,1,.26,8.87A76.71,76.71,0,0,1,698.18,148.38Z" style="fill:#e0e0e0"></path><rect x="687.85" y="226.89" width="47.6" height="16.77" style="fill:#fafafa"></rect><rect x="435.51" y="446.33" width="60.82" height="16.77" style="fill:#f5f5f5"></rect></g><g id="freepik--Floor--inject-9"><path d="M693.85,456c0,.14-142.81.25-318.92.25S56,456.15,56,456s142.77-.24,319-.24S693.85,455.88,693.85,456Z" style="fill:#263238"></path></g><g id="freepik--window-shopping--inject-9"><rect x="242.79" y="136.38" width="389.59" height="269.59" style="fill:#263238"></rect><rect x="252.57" y="144.16" width="373.42" height="254.03" style="fill:#f5f5f5"></rect><rect x="277.75" y="167.79" width="118.09" height="7.42" style="fill:#263238"></rect><path d="M282.57,175.21V183h2s-3.33,2.75-3.62,5.35h11.87s0-2-3.63-5.29h2v-8.08Z" style="fill:#263238"></path><path d="M307.63,175.21V183h2s-3.33,2.75-3.61,5.35H317.9s0-2-3.63-5.29h2v-8.08Z" style="fill:#263238"></path><path d="M332.69,175.21V183h2s-3.32,2.75-3.61,5.35H343s0-2-3.63-5.29h2v-8.08Z" style="fill:#263238"></path><path d="M357.75,175.21V183h2s-3.33,2.75-3.62,5.35H368s0-2-3.63-5.29h2v-8.08Z" style="fill:#263238"></path><path d="M382.81,175.21V183h2s-3.33,2.75-3.62,5.35h11.87s0-2-3.63-5.29h2v-8.08Z" style="fill:#263238"></path><path d="M286.17,143.91c.13,0,.24,6.11.24,13.64s-.11,13.63-.24,13.63-.25-6.1-.25-13.63S286,143.91,286.17,143.91Z" style="fill:#263238"></path><path d="M387.25,143.91c.14,0,.25,6.11.25,13.64s-.11,13.63-.25,13.63-.24-6.1-.24-13.63S387.12,143.91,387.25,143.91Z" style="fill:#263238"></path><rect x="470.17" y="167.79" width="118.09" height="7.42" style="fill:#263238"></rect><path d="M475,175.21V183h2s-3.33,2.75-3.61,5.35h11.86s0-2-3.63-5.29h2v-8.08Z" style="fill:#263238"></path><path d="M500,175.21V183h2s-3.33,2.75-3.62,5.35h11.87s0-2-3.63-5.29h2v-8.08Z" style="fill:#263238"></path><path d="M525.1,175.21V183h2s-3.33,2.75-3.62,5.35h11.87s0-2-3.63-5.29h2v-8.08Z" style="fill:#263238"></path><path d="M550.16,175.21V183h2s-3.33,2.75-3.62,5.35h11.87s0-2-3.63-5.29h2v-8.08Z" style="fill:#263238"></path><path d="M575.22,175.21V183h2s-3.33,2.75-3.62,5.35H585.5s0-2-3.63-5.29h2v-8.08Z" style="fill:#263238"></path><path d="M478.58,143.91c.13,0,.24,6.11.24,13.64s-.11,13.63-.24,13.63-.25-6.1-.25-13.63S478.44,143.91,478.58,143.91Z" style="fill:#263238"></path><path d="M579.66,143.91c.14,0,.25,6.11.25,13.64s-.11,13.63-.25,13.63-.24-6.1-.24-13.63S579.53,143.91,579.66,143.91Z" style="fill:#263238"></path><rect x="532.6" y="222.53" width="67.08" height="5.05" style="fill:#263238"></rect><rect x="405.21" y="287.45" width="44.73" height="27.3" rx="4.97" style="fill:#FF725E"></rect><g style="opacity:0.30000000000000004"><rect x="405.21" y="287.45" width="44.73" height="27.3" rx="4.97"></rect></g><rect x="401.69" y="287.45" width="44.73" height="27.3" rx="4.97" style="fill:#FF725E"></rect><path d="M442.8,313.55s.21-.12.55-.41a3.79,3.79,0,0,0,1-1.62c.65-1.61.27-4.14.22-7.21s-.22-6.77-.35-10.84a10,10,0,0,0-.25-3,1.66,1.66,0,0,0-.93-1,4.78,4.78,0,0,0-1.54-.21l-6.87-.12c-9.41-.08-17.93.09-24.1-.1a29.22,29.22,0,0,0-4.14.06,7.55,7.55,0,0,0-2.93.92,5.65,5.65,0,0,0-1.91,1.8s0-.06.07-.17a4.09,4.09,0,0,1,.27-.44,4.94,4.94,0,0,1,1.47-1.36,7.55,7.55,0,0,1,3-1,26.56,26.56,0,0,1,4.18-.13c6.17.09,14.68-.13,24.1-.06l6.87.14a5.1,5.1,0,0,1,1.71.25,2.13,2.13,0,0,1,1.2,1.28,10.4,10.4,0,0,1,.26,3.19c.1,4.06.18,7.73.25,10.82,0,1.54.05,2.93.07,4.17a8,8,0,0,1-.46,3.13,3.75,3.75,0,0,1-1.16,1.63A2,2,0,0,1,442.8,313.55Z" style="fill:#263238"></path><rect x="418.6" y="299.65" width="11.73" height="2.09" style="fill:#263238"></rect><path d="M406.83,296.2a.3.3,0,0,0,0-.6.3.3,0,0,0,0,.6Z" style="fill:#fafafa"></path><path d="M411.6,295.89l.06-.06c.23-.22-.12-.58-.34-.35l-.06.06a.24.24,0,0,0,.34.35Z" style="fill:#fafafa"></path><path d="M409.53,299.66a.26.26,0,0,0,0-.52.26.26,0,0,0,0,.52Z" style="fill:#fafafa"></path><path d="M415.36,299.28a.25.25,0,0,0,0-.5.25.25,0,0,0,0,.5Z" style="fill:#fafafa"></path><path d="M407.56,306.76a.31.31,0,0,0,0-.62.31.31,0,0,0,0,.62Z" style="fill:#fafafa"></path><path d="M404.37,300.69a.25.25,0,0,0,0-.5.25.25,0,0,0,0,.5Z" style="fill:#fafafa"></path><path d="M403.64,297.94a.2.2,0,0,0,0-.4.2.2,0,0,0,0,.4Z" style="fill:#fafafa"></path><path d="M404.86,293.22a.21.21,0,0,0,0-.41.21.21,0,0,0,0,.41Z" style="fill:#fafafa"></path><path d="M408.79,291.74a.26.26,0,0,0,0-.52.26.26,0,0,0,0,.52Z" style="fill:#fafafa"></path><path d="M409.16,294.17a.24.24,0,0,0,0-.47.24.24,0,0,0,0,.47Z" style="fill:#fafafa"></path><path d="M415.66,291.78a.24.24,0,0,0,0-.48.24.24,0,0,0,0,.48Z" style="fill:#fafafa"></path><path d="M413.39,297.78a.29.29,0,0,0,0-.57.29.29,0,0,0,0,.57Z" style="fill:#fafafa"></path><path d="M416.58,295.65a.18.18,0,0,0,0-.36.18.18,0,0,0,0,.36Z" style="fill:#fafafa"></path><path d="M412.17,292.31a.16.16,0,0,0,0-.31.16.16,0,0,0,0,.31Z" style="fill:#fafafa"></path><path d="M412.23,302a.23.23,0,0,0,0-.46.23.23,0,0,0,0,.46Z" style="fill:#fafafa"></path><path d="M407,302.74a.22.22,0,0,0,0-.43.22.22,0,0,0,0,.43Z" style="fill:#fafafa"></path><path d="M403.27,305.87a.22.22,0,0,0,0-.43.22.22,0,0,0,0,.43Z" style="fill:#fafafa"></path><path d="M406.7,298.26a.15.15,0,1,0,0-.3.15.15,0,0,0,0,.3Z" style="fill:#fafafa"></path><path d="M402.53,294.08h.13a.21.21,0,0,0,0-.41h-.13a.21.21,0,0,0,0,.41Z" style="fill:#fafafa"></path><path d="M405,290.33a.08.08,0,0,0,0-.15.08.08,0,1,0,0,.15Z" style="fill:#fafafa"></path><path d="M413.45,300.77a.15.15,0,0,0,0-.29.15.15,0,0,0,0,.29Z" style="fill:#fafafa"></path><path d="M410.88,305.14a.22.22,0,0,0,0-.44.22.22,0,0,0,0,.44Z" style="fill:#fafafa"></path><path d="M411.43,309.93a.23.23,0,0,0,0-.45.23.23,0,0,0,0,.45Z" style="fill:#fafafa"></path><path d="M406.28,312.8a.21.21,0,0,0,0-.42.21.21,0,0,0,0,.42Z" style="fill:#fafafa"></path><path d="M403.94,309.05a.15.15,0,0,0,0-.29.15.15,0,0,0,0,.29Z" style="fill:#fafafa"></path><path d="M407.42,309.58a.47.47,0,0,0,0-.93.47.47,0,0,0,0,.93Z" style="fill:#fafafa"></path><path d="M410.57,313.32a.3.3,0,0,0,0-.6.3.3,0,0,0,0,.6Z" style="fill:#fafafa"></path><path d="M403.32,312.21l.07,0c.27-.21-.16-.64-.37-.37l0,.07a.25.25,0,0,0,.35.35Z" style="fill:#fafafa"></path><path d="M403.51,302.67h.07a.28.28,0,0,0,0-.55h-.07a.27.27,0,0,0,0,.54Z" style="fill:#fafafa"></path><path d="M414.5,305.38a.4.4,0,0,0,0-.8.4.4,0,0,0,0,.8Z" style="fill:#fafafa"></path><path d="M416.46,302.58a.24.24,0,0,0,0-.47.24.24,0,0,0,0,.47Z" style="fill:#fafafa"></path><path d="M418.92,307l.07,0a.22.22,0,0,0,.3-.3l0-.07c-.2-.36-.69.14-.33.33Z" style="fill:#fafafa"></path><path d="M413.52,307.8a.18.18,0,0,0,0-.36.18.18,0,0,0,0,.36Z" style="fill:#fafafa"></path><path d="M416.89,310.79a.53.53,0,0,0,0-1.06.53.53,0,0,0,0,1.06Z" style="fill:#fafafa"></path><path d="M414.37,313.2a.31.31,0,0,0,0-.61.31.31,0,0,0,0,.61Z" style="fill:#fafafa"></path><path d="M414.07,309.67a.27.27,0,0,0,0-.54.27.27,0,0,0,0,.54Z" style="fill:#fafafa"></path><path d="M423.15,310.78a.16.16,0,0,0,0-.31.16.16,0,0,0,0,.31Z" style="fill:#fafafa"></path><path d="M418.91,313.33a.31.31,0,0,0,0-.62.31.31,0,0,0,0,.62Z" style="fill:#fafafa"></path><path d="M421.37,308.46a.17.17,0,0,0,0-.33.17.17,0,0,0,0,.33Z" style="fill:#fafafa"></path><path d="M423.22,302.8h0a.53.53,0,0,0-.59.77v0a.54.54,0,0,0,.89.06.55.55,0,0,0-.28-.85Z" style="fill:#fafafa"></path><path d="M420.09,296.38l0,0c.65-.32-.21-1.31-.62-.62l0,0a.45.45,0,0,0,.61.62Z" style="fill:#fafafa"></path><path d="M428.72,291.17v-.06c.06-.55-.92-.55-.86,0v.06a.42.42,0,0,0,.84,0Z" style="fill:#fafafa"></path><path d="M434,296.66l0-.06a.42.42,0,0,0-.57-.15l-.07,0a.49.49,0,0,0,.12.89.5.5,0,0,0,.55-.72Z" style="fill:#fafafa"></path><path d="M438.58,293.13l0,.05a.45.45,0,0,0,.76,0l0-.05c.37-.88-1.18-.88-.8,0Z" style="fill:#fafafa"></path><path d="M442.3,300.19a.45.45,0,0,0,0-.9.45.45,0,0,0,0,.9Z" style="fill:#fafafa"></path><path d="M437.38,305.5a.52.52,0,0,0,0-1,.52.52,0,0,0,0,1Z" style="fill:#fafafa"></path><path d="M431.13,310.48l.1-.14c.29-.39-.31-.74-.63-.48l-.13.11c-.44.35.27,1,.66.51Z" style="fill:#fafafa"></path><path d="M431.12,305.76l.06,0a.25.25,0,1,0,0-.49h-.06a.24.24,0,0,0,0,.46Z" style="fill:#fafafa"></path><path d="M440.08,310.25a.24.24,0,0,0,0-.48.24.24,0,0,0,0,.48Z" style="fill:#fafafa"></path><path d="M426.77,295.92a.21.21,0,0,0,0-.41.21.21,0,0,0,0,.41Z" style="fill:#fafafa"></path><path d="M422.29,293.69a.25.25,0,0,0,0-.49.25.25,0,0,0,0,.49Z" style="fill:#fafafa"></path><path d="M414.25,294.67a.55.55,0,0,0,0-1.1.55.55,0,0,0,0,1.1Z" style="fill:#fafafa"></path><path d="M408.81,303.49l.12,0a.52.52,0,0,0,0-1l-.12,0c-.88-.29-.88,1.34,0,1.06Z" style="fill:#fafafa"></path><path d="M424.87,307.62a.19.19,0,0,0,0-.37.19.19,0,0,0,0,.37Z" style="fill:#fafafa"></path><path d="M419.53,304.2a.2.2,0,0,0,0-.4.2.2,0,0,0,0,.4Z" style="fill:#fafafa"></path><path d="M428.69,303.62l.06,0a.29.29,0,0,0,0-.55l-.06,0c-.49-.19-.49.78,0,.59Z" style="fill:#fafafa"></path><path d="M425.85,305.21a.23.23,0,0,0,0-.46.23.23,0,0,0,0,.46Z" style="fill:#fafafa"></path><path d="M428.3,306.46a.07.07,0,1,0,0-.14.07.07,0,0,0,0,.14Z" style="fill:#fafafa"></path><path d="M426.89,311.63a.27.27,0,0,0,0-.53.27.27,0,0,0,0,.53Z" style="fill:#fafafa"></path><path d="M423.27,314.13a.25.25,0,0,0,0-.5.25.25,0,0,0,0,.5Z" style="fill:#fafafa"></path><path d="M419.71,311.51a0,0,0,0,0,0-.05,0,0,0,0,0,0,.05Z" style="fill:#fafafa"></path><path d="M419.34,311.41a.11.11,0,0,0,0-.22c-.13,0-.13.22,0,.22Z" style="fill:#fafafa"></path><path d="M416.58,305.77h.06a.18.18,0,0,0,0-.35h-.06a.18.18,0,0,0,0,.35Z" style="fill:#fafafa"></path><path d="M422.9,297.86a.25.25,0,0,0,0-.49.25.25,0,0,0,0,.49Z" style="fill:#fafafa"></path><path d="M419.22,298.59a.18.18,0,0,0,0-.35.18.18,0,0,0,0,.35Z" style="fill:#fafafa"></path><path d="M423.58,295.76a.23.23,0,0,0,0-.46.23.23,0,0,0,0,.46Z" style="fill:#fafafa"></path><path d="M419.22,292.6a.44.44,0,0,0,0-.88.44.44,0,0,0,0,.88Z" style="fill:#fafafa"></path><path d="M423.33,290.69a.19.19,0,0,0,0-.38.19.19,0,0,0,0,.38Z" style="fill:#fafafa"></path><path d="M404.75,295.49a.44.44,0,0,0-.8.34c.17.61,1.13.22.8-.34Z" style="fill:#fafafa"></path><path d="M427,293.31a.18.18,0,0,0,0-.35.18.18,0,0,0,0,.35Z" style="fill:#fafafa"></path><path d="M434.32,291.26a.21.21,0,0,0,0-.41.21.21,0,0,0,0,.41Z" style="fill:#fafafa"></path><path d="M433.46,296.12a.22.22,0,0,0,0-.44.22.22,0,0,0,0,.44Z" style="fill:#fafafa"></path><path d="M428.85,294.27a.09.09,0,1,0,0-.17.09.09,0,0,0,0,.17Z" style="fill:#fafafa"></path><path d="M431.43,292.38a.16.16,0,0,0,0-.32.16.16,0,0,0,0,.32Z" style="fill:#fafafa"></path><path d="M431.17,296.86l0,0a.2.2,0,0,0,0-.27l0,0a.24.24,0,0,0-.4.17.23.23,0,0,0,.4.16Z" style="fill:#fafafa"></path><path d="M426.89,298.05a.19.19,0,0,0,0-.38.19.19,0,0,0,0,.38Z" style="fill:#fafafa"></path><path d="M433.4,300.9a.52.52,0,0,0,0-1,.52.52,0,0,0,0,1Z" style="fill:#fafafa"></path><path d="M433,305.25a.33.33,0,0,0,0-.66.33.33,0,0,0,0,.66Z" style="fill:#fafafa"></path><path d="M432.9,303.28a.21.21,0,0,0,0-.41.21.21,0,0,0,0,.41Z" style="fill:#fafafa"></path><path d="M436.22,302.8a.27.27,0,0,0,0-.54.27.27,0,0,0,0,.54Z" style="fill:#fafafa"></path><path d="M439.29,300.3a.29.29,0,0,0,0-.58.29.29,0,0,0,0,.58Z" style="fill:#fafafa"></path><path d="M436.83,298a.24.24,0,0,0,0-.48.24.24,0,0,0,0,.48Z" style="fill:#fafafa"></path><path d="M442.05,297.05a.23.23,0,0,0,0-.46.23.23,0,0,0,0,.46Z" style="fill:#fafafa"></path><path d="M436.34,293.05a.22.22,0,0,0,0-.44.22.22,0,0,0,0,.44Z" style="fill:#fafafa"></path><path d="M435.23,294.43h0a.18.18,0,0,0,0-.35l0,0a.2.2,0,1,0,0,.38Z" style="fill:#fafafa"></path><path d="M439.65,295.74a.21.21,0,0,0,0-.42.21.21,0,0,0,0,.42Z" style="fill:#fafafa"></path><path d="M441.92,291.29a.42.42,0,0,0,0-.84.42.42,0,0,0,0,.84Z" style="fill:#fafafa"></path><path d="M442.48,304.47a.23.23,0,0,0,0-.45.23.23,0,0,0,0,.45Z" style="fill:#fafafa"></path><path d="M440.08,302.78a.13.13,0,0,0,0-.26.13.13,0,0,0,0,.26Z" style="fill:#fafafa"></path><path d="M442.17,307.55a.06.06,0,0,0,0-.11.06.06,0,0,0,0,.11Z" style="fill:#fafafa"></path><path d="M438.73,307.06a.18.18,0,0,0,0-.36.18.18,0,0,0,0,.36Z" style="fill:#fafafa"></path><path d="M434.62,310.44a.19.19,0,0,0,0-.37.19.19,0,0,0,0,.37Z" style="fill:#fafafa"></path><path d="M436.46,313.78a.27.27,0,0,0,0-.54.27.27,0,0,0,0,.54Z" style="fill:#fafafa"></path><path d="M429.16,313.93a.24.24,0,0,0,0-.47.24.24,0,0,0,0,.47Z" style="fill:#fafafa"></path><path d="M431.49,312.82a.24.24,0,0,0,0-.47.24.24,0,0,0,0,.47Z" style="fill:#fafafa"></path><path d="M425.11,309.33a.18.18,0,0,0,0-.36.18.18,0,0,0,0,.36Z" style="fill:#fafafa"></path><path d="M435.74,306.42v.06a.12.12,0,1,0,.24,0v-.06a.11.11,0,0,0-.22,0Z" style="fill:#fafafa"></path><path d="M433.7,308.12a.19.19,0,0,0,0-.39.19.19,0,0,0,0,.39Z" style="fill:#fafafa"></path><path d="M427.81,308.59a.05.05,0,0,0,0-.1.05.05,0,0,0,0,.1Z" style="fill:#fafafa"></path><path d="M439.41,313.22a.27.27,0,0,0,0-.53.27.27,0,0,0,0,.53Z" style="fill:#fafafa"></path><path d="M410.45,311.88a.21.21,0,0,0,0-.42.21.21,0,1,0,0,.42Z" style="fill:#fafafa"></path><path d="M408.18,312.18a.14.14,0,0,0,0-.28.14.14,0,0,0,0,.28Z" style="fill:#fafafa"></path><path d="M404.19,310.24a.17.17,0,0,0,0-.33.17.17,0,0,0,0,.33Z" style="fill:#fafafa"></path><path d="M405.05,306.47a.2.2,0,0,0,0-.4.2.2,0,0,0,0,.4Z" style="fill:#fafafa"></path><path d="M410.82,308.21a.23.23,0,0,0,0-.45.23.23,0,0,0,0,.45Z" style="fill:#fafafa"></path><polygon points="432.44 314.74 436.11 305.45 455.21 305.45 458.83 314.74 432.44 314.74" style="fill:#f5f5f5"></polygon><polygon points="455.21 305.45 452.37 314.74 458.83 314.74 455.21 305.45" style="fill:#e0e0e0"></polygon><path d="M437.82,312.81a2.47,2.47,0,0,0,1.19.09,1.32,1.32,0,0,0,.87-.79.83.83,0,0,0,0-.62.53.53,0,0,0-.53-.25,2.58,2.58,0,0,0-.54.07l-.15-.46a1.36,1.36,0,0,0,.79-1,1.1,1.1,0,0,0,0-.54.41.41,0,0,0-.25-.29,1.08,1.08,0,0,0-.7,0c-.17.05-.28.08-.3.05s.06-.1.23-.21a1.1,1.1,0,0,1,.86-.19.72.72,0,0,1,.52.48,1.42,1.42,0,0,1,.06.74,1.79,1.79,0,0,1-1,1.32l-.15-.46a2.55,2.55,0,0,1,.65-.09,1,1,0,0,1,1,.53,1.23,1.23,0,0,1,0,1,1.66,1.66,0,0,1-1.21,1,1.49,1.49,0,0,1-1-.17C437.88,313,437.8,312.83,437.82,312.81Z" style="fill:#263238"></path><path d="M441.09,313c-.12-.07-.12-.29,0-.49s.31-.3.42-.23.12.29,0,.48S441.2,313.09,441.09,313Z" style="fill:#263238"></path><path d="M444.77,308.92c0,.14-.49.31-1.12.38s-1.16,0-1.17-.1.48-.31,1.11-.38S444.75,308.79,444.77,308.92Z" style="fill:#263238"></path><path d="M442.68,312.42c0-.07.39.12.93,0a1.15,1.15,0,0,0,.72-.53,1,1,0,0,0,0-1,.85.85,0,0,0-1.38-.17l-.38.49,0-.61c.05-.81.12-1.32.2-1.32s.15.52.18,1.32l-.34-.12a1.24,1.24,0,0,1,1-.5,1.26,1.26,0,0,1,1.12.67,1.38,1.38,0,0,1-.07,1.49,1.44,1.44,0,0,1-1,.62C443,312.81,442.64,312.46,442.68,312.42Z" style="fill:#263238"></path><path d="M446.7,309.07s.09-.13.35-.24a1,1,0,0,1,.52-.08.76.76,0,0,1,.58.47,2.84,2.84,0,0,1,0,1.73,3.28,3.28,0,0,1-1.2,1.77,1,1,0,0,1-.66.16.83.83,0,0,1-.57-.39,1.76,1.76,0,0,1-.22-1.07,3.66,3.66,0,0,1,.37-1.66c.5-.92,1.26-1,1.24-.91a2.63,2.63,0,0,0-.93,1.06,3.62,3.62,0,0,0-.22,1.52,1.47,1.47,0,0,0,.15.79.39.39,0,0,0,.59.08,3.26,3.26,0,0,0,1.15-3,.57.57,0,0,0-.73-.33C446.86,309.06,446.71,309.11,446.7,309.07Z" style="fill:#263238"></path><path d="M449.56,312.4c0-.09.55.15,1.35.16a1.21,1.21,0,0,0,1-.62c.19-.4-.14-.92-.64-1.25a7.36,7.36,0,0,1-.83-.52,1.22,1.22,0,0,1-.5-.94,1.06,1.06,0,0,1,.52-.83,2.77,2.77,0,0,1,.68-.32,1.77,1.77,0,0,1,1.43,0,10,10,0,0,0-1.31.33c-.34.16-.88.46-.87.83a.83.83,0,0,0,.35.57c.21.17.5.29.8.49a2.18,2.18,0,0,1,.74.77,1.19,1.19,0,0,1,0,1.07,1.5,1.5,0,0,1-1.46.77A2.2,2.2,0,0,1,449.56,312.4Z" style="fill:#263238"></path><path d="M450.27,314.25a25.13,25.13,0,0,1,1.65-6.75,25.13,25.13,0,0,1-1.65,6.75Z" style="fill:#263238"></path><rect x="390.61" y="314.74" width="75.55" height="83.99" style="fill:#263238"></rect><rect x="390.61" y="314.74" width="60.48" height="83.99" style="fill:#455a64"></rect><rect x="505.45" y="356.74" width="110.54" height="42" style="fill:#263238"></rect><rect x="493.36" y="356.74" width="110.54" height="42" style="fill:#455a64"></rect><rect x="528.35" y="349.35" width="3.14" height="7.41" style="fill:#263238"></rect><path d="M526.7,331l-.08,1.62a4.83,4.83,0,0,1-3.57,4.66l-4,1.08s-.82,15.52,10.52,15.89,11.58-15.82,11.58-15.82-1.82-.39-3.62-.88a4.54,4.54,0,0,1-3.34-4.55l.07-2Z" style="fill:#263238"></path><rect x="529.54" y="328.45" width="1.94" height="4.35" style="fill:#263238"></rect><circle cx="530.53" cy="327.36" r="2.03" style="fill:#263238"></circle><path d="M534.87,335.55a3.77,3.77,0,0,1-.69,1.9,6.37,6.37,0,0,1-1.48,1.66,4.87,4.87,0,0,1-2.53,1.08,4,4,0,0,1-2.63-.82,6.3,6.3,0,0,1-1.52-1.62,6.18,6.18,0,0,1-.94-1.78,12.15,12.15,0,0,1,1.22,1.58,7.19,7.19,0,0,0,1.5,1.45,3.66,3.66,0,0,0,2.33.7,4.61,4.61,0,0,0,2.3-.95,6.79,6.79,0,0,0,1.46-1.49C534.59,336.28,534.78,335.53,534.87,335.55Z" style="fill:#f5f5f5"></path><path d="M530.12,340a1.26,1.26,0,1,0,.4.06" style="fill:#FF725E"></path><path d="M530.12,342.51a.76.76,0,1,0,.25,0" style="fill:#FF725E"></path><rect x="561.5" y="349.35" width="3.14" height="7.41" style="fill:#263238"></rect><path d="M559.86,331l-.09,1.62a4.83,4.83,0,0,1-3.57,4.66l-4,1.08s-.82,15.52,10.51,15.89,11.58-15.82,11.58-15.82-1.82-.39-3.62-.88a4.55,4.55,0,0,1-3.34-4.55l.07-2Z" style="fill:#263238"></path><rect x="562.7" y="328.45" width="1.94" height="4.35" style="fill:#263238"></rect><circle cx="563.68" cy="327.36" r="2.03" style="fill:#263238"></circle><path d="M568,335.55a3.65,3.65,0,0,1-.69,1.9,6.19,6.19,0,0,1-1.48,1.66,4.84,4.84,0,0,1-2.52,1.08,3.94,3.94,0,0,1-2.63-.82,6.13,6.13,0,0,1-1.52-1.62,5.87,5.87,0,0,1-.94-1.78,12.15,12.15,0,0,1,1.22,1.58A6.72,6.72,0,0,0,561,339a3.64,3.64,0,0,0,2.33.7,4.61,4.61,0,0,0,2.29-.95,6.79,6.79,0,0,0,1.46-1.49C567.74,336.28,567.94,335.53,568,335.55Z" style="fill:#f5f5f5"></path><path d="M567.55,334.31c.05,0-.24.47-.91,1a5.77,5.77,0,0,1-3,1.09,5.9,5.9,0,0,1-3.15-.72c-.72-.41-1.06-.81-1-.86a8.73,8.73,0,0,1,1.18.55,6.75,6.75,0,0,0,3,.54,6.57,6.57,0,0,0,2.88-.89C567.13,334.59,567.5,334.25,567.55,334.31Z" style="fill:#f5f5f5"></path><path d="M567.27,333.19a12.57,12.57,0,0,1-7.58.17c0-.14,1.71.07,3.79,0S567.24,333.05,567.27,333.19Z" style="fill:#f5f5f5"></path><path d="M569.72,337.28a2.51,2.51,0,0,1-.11.82,8.83,8.83,0,0,1-.81,2.11,9.86,9.86,0,0,1-2.06,2.64,6.23,6.23,0,0,1-3.74,1.76,5.31,5.31,0,0,1-3.79-1.61,10.28,10.28,0,0,1-2.08-2.62,9.32,9.32,0,0,1-.86-2.09,2.25,2.25,0,0,1-.13-.81,23.67,23.67,0,0,0,1.29,2.72,10.31,10.31,0,0,0,2.08,2.46,4.94,4.94,0,0,0,3.47,1.46,6,6,0,0,0,3.46-1.61A10,10,0,0,0,568.5,340,20.33,20.33,0,0,0,569.72,337.28Z" style="fill:#f5f5f5"></path><path d="M563.16,344.65a5.76,5.76,0,0,1-.29-2.29,5.54,5.54,0,0,1,.19-2.31,5.57,5.57,0,0,1,.3,2.3A5.38,5.38,0,0,1,563.16,344.65Z" style="fill:#f5f5f5"></path><path d="M557.7,341.22c-.11-.09.33-.78,1-1.55s1.25-1.31,1.35-1.22-.33.78-1,1.54S557.8,341.31,557.7,341.22Z" style="fill:#f5f5f5"></path><path d="M568.15,341.35c-.11.08-.66-.48-1.22-1.25s-.93-1.46-.82-1.54.65.48,1.22,1.25S568.26,341.27,568.15,341.35Z" style="fill:#f5f5f5"></path><path d="M561.33,339.42c-.14,0,0-.8.11-1.73s.23-1.7.37-1.7.26.79.12,1.77S561.45,339.46,561.33,339.42Z" style="fill:#f5f5f5"></path><path d="M565.48,339.1c-.11.08-.68-.54-1-1.51s-.13-1.79,0-1.78.22.76.48,1.65S565.59,339,565.48,339.1Z" style="fill:#f5f5f5"></path><path d="M563.56,336.13c-.13,0-.39-.56-.45-1.33s.11-1.4.24-1.38.19.61.25,1.34S563.69,336.1,563.56,336.13Z" style="fill:#f5f5f5"></path><path d="M566.42,335.13c-.12.08-.41-.18-.61-.6s-.2-.8-.07-.84.34.25.52.64S566.53,335.06,566.42,335.13Z" style="fill:#f5f5f5"></path><path d="M560.19,335.31c-.12-.06,0-.43,0-.87a4.29,4.29,0,0,1,.15-.7l.21.08c-.08,0-.14,0-.17,0s0-.09,0-.17l.07-.15.14.23a1.38,1.38,0,0,1,.08.81C560.61,335.05,560.3,335.38,560.19,335.31Z" style="fill:#f5f5f5"></path><path d="M563.29,344.5a1.45,1.45,0,0,0-.72.33.88.88,0,0,0-.09,1.15.87.87,0,1,0,.4-1.35" style="fill:#455a64"></path><path d="M568.75,340.56a1.62,1.62,0,0,0-.73.33.87.87,0,0,0,1.06,1.36.89.89,0,0,0,.33-1.1.9.9,0,0,0-1.07-.45" style="fill:#455a64"></path><path d="M557.48,340.62a1.51,1.51,0,0,0-.73.32.88.88,0,1,0,.32-.19" style="fill:#455a64"></path><path d="M559.82,343.34a.78.78,0,0,0-.36.16.45.45,0,0,0,0,.58.45.45,0,0,0,.57.1.43.43,0,0,0-.37-.77" style="fill:#455a64"></path><path d="M566.21,343.18a.7.7,0,0,0-.37.17.44.44,0,0,0,0,.57.45.45,0,0,0,.57.11.45.45,0,0,0,.16-.56.44.44,0,0,0-.53-.22" style="fill:#455a64"></path><polygon points="598.59 356.8 602.43 339.42 584.86 339.42 579.75 356.8 598.59 356.8" style="fill:#ebebeb"></polygon><polygon points="602.43 339.42 607.87 356.8 598.59 356.8 602.43 339.42" style="fill:#e0e0e0"></polygon><path d="M586.4,342.48a78.13,78.13,0,0,1,12.49,0,81.37,81.37,0,0,1-12.49,0Z" style="fill:#263238"></path><path d="M590,346.14a37.49,37.49,0,0,1,8.47,0,36,36,0,0,1-8.47,0Z" style="fill:#263238"></path><path d="M585.51,345.64c0-.14.34-.25.75-.25s.76.11.76.25-.34.24-.76.24S585.51,345.77,585.51,345.64Z" style="fill:#263238"></path><path d="M588.85,349.09a37.49,37.49,0,0,1,8.47,0,36,36,0,0,1-8.47,0Z" style="fill:#263238"></path><path d="M584.34,348.59c0-.13.34-.24.75-.24s.76.11.76.24-.34.25-.76.25S584.34,348.73,584.34,348.59Z" style="fill:#263238"></path><path d="M587.68,352a37.49,37.49,0,0,1,8.47,0,36,36,0,0,1-8.47,0Z" style="fill:#263238"></path><path d="M583.17,351.54c0-.13.34-.24.75-.24s.76.11.76.24-.34.25-.76.25S583.17,351.68,583.17,351.54Z" style="fill:#263238"></path><rect x="512.73" y="367.73" width="77.14" height="14.49" style="fill:#f5f5f5"></rect><rect x="533.7" y="310.27" width="67.08" height="5.05" style="fill:#263238"></rect><rect x="545.27" y="283.35" width="44.73" height="27.3" style="fill:#FF725E"></rect><g style="opacity:0.6000000000000001"><rect x="545.27" y="283.35" width="44.73" height="27.3"></rect></g><rect x="543.1" y="283.35" width="44.73" height="27.3" style="fill:#FF725E"></rect><path d="M587.82,283.35s-.1.14-.32.38-.56.59-1,1a27.38,27.38,0,0,1-4.24,3.18,33,33,0,0,1-16.67,4.74,32.1,32.1,0,0,1-16.75-4.48,30.5,30.5,0,0,1-4.31-3.08c-.48-.39-.82-.74-1.06-1s-.36-.35-.34-.37.55.43,1.52,1.2a35.68,35.68,0,0,0,4.37,2.92,32.7,32.7,0,0,0,16.56,4.29,33.83,33.83,0,0,0,16.51-4.55,30.69,30.69,0,0,0,4.28-3C587.29,283.79,587.79,283.32,587.82,283.35Z" style="fill:#263238"></path><path d="M567.27,292.34a1.9,1.9,0,0,0-.52-1.1,2,2,0,0,0-3,.29,2,2,0,1,0,3.49.81Z" style="fill:#fafafa"></path><path d="M588.58,282.6s.07.08.19.26l.53.79c.43.71,1.08,1.76,1.8,3.17a44.1,44.1,0,0,1,4.18,12.72,36.49,36.49,0,0,0,.77,4.35,4.93,4.93,0,0,0,1.08,2,5.1,5.1,0,0,0,2,1.22,19.23,19.23,0,0,1,2.38.94,3.67,3.67,0,0,1,1.83,2,5.13,5.13,0,0,1-1.4,5.24,12.73,12.73,0,0,1-5.11,2.74,41.4,41.4,0,0,1-5.82,1.55,21.44,21.44,0,0,1-12.51-1.1,19.19,19.19,0,0,1-5.28-3.69,34.69,34.69,0,0,0-4.72-3.95,11.16,11.16,0,0,0-5.56-1.69,30.53,30.53,0,0,0-5.68.38,41.23,41.23,0,0,1-5.47.51,12.8,12.8,0,0,1-5.11-.94,8,8,0,0,1-3.76-3.09,8.82,8.82,0,0,1-1.14-4.33c-.06-1.43.06-2.78.11-4.05s.13-2.47.19-3.59c.11-2.24.22-4.17.3-5.76s.17-2.78.22-3.64c0-.39,0-.71.06-.95s0-.32,0-.32a1,1,0,0,1,0,.33c0,.24,0,.55,0,.94,0,.87-.06,2.09-.12,3.65s-.13,3.52-.22,5.76c-.05,1.12-.09,2.32-.15,3.6s-.14,2.62-.07,4a8.4,8.4,0,0,0,1.12,4.15,7.57,7.57,0,0,0,3.58,2.91,12.36,12.36,0,0,0,5,.89,41.07,41.07,0,0,0,5.41-.53,31.14,31.14,0,0,1,5.77-.4,11.56,11.56,0,0,1,5.78,1.76c3.52,2.19,6,5.91,10,7.59a20.94,20.94,0,0,0,12.23,1.07,41.09,41.09,0,0,0,5.75-1.51,12.3,12.3,0,0,0,4.94-2.62,4.7,4.7,0,0,0,1.31-4.77,3.21,3.21,0,0,0-1.62-1.78,20.41,20.41,0,0,0-2.32-.93,5.41,5.41,0,0,1-2.14-1.33,5.27,5.27,0,0,1-1.15-2.14,35.87,35.87,0,0,1-.75-4.4,45.25,45.25,0,0,0-4-12.69c-.69-1.42-1.31-2.49-1.72-3.21l-.48-.82A1.21,1.21,0,0,1,588.58,282.6Z" style="fill:#263238"></path><rect x="532.28" y="260.36" width="67.08" height="5.05" style="fill:#263238"></rect><polygon points="585.73 260.43 555.02 260.43 555.02 236.97 581.5 236.97 585.73 260.43" style="fill:#263238"></polygon><polygon points="578.73 260.43 544.57 260.43 547.43 236.97 580.67 236.97 578.73 260.43" style="fill:#455a64"></polygon><path d="M580.54,236.72a2.26,2.26,0,0,1-.14.47c-.1.3-.26.74-.49,1.3a31.47,31.47,0,0,1-2.31,4.6,21.51,21.51,0,0,1-5,5.75,14.86,14.86,0,0,1-8.7,3.31,15.5,15.5,0,0,1-9-2.54,16.06,16.06,0,0,1-5.16-5.62,16.92,16.92,0,0,1-1.79-4.83,10.91,10.91,0,0,1-.21-1.38,1.66,1.66,0,0,1,0-.49s.12.66.41,1.83a18.42,18.42,0,0,0,1.91,4.7,16.2,16.2,0,0,0,5.11,5.42,15.22,15.22,0,0,0,8.69,2.42,14.58,14.58,0,0,0,8.44-3.18,21.72,21.72,0,0,0,5-5.57,37.69,37.69,0,0,0,2.42-4.49c.24-.51.43-.93.58-1.27S580.52,236.71,580.54,236.72Z" style="fill:#263238"></path><path d="M562.83,256.48a5.35,5.35,0,0,1-.22-2.25,5.28,5.28,0,0,1,.26-2.24,10.2,10.2,0,0,1,0,4.49Z" style="fill:#263238"></path><path d="M565.4,256.41A5.29,5.29,0,0,1,565,254a5.18,5.18,0,0,1,.27-2.39,7.38,7.38,0,0,1,.22,2.38A7,7,0,0,1,565.4,256.41Z" style="fill:#263238"></path><path d="M567.4,255.72a8.67,8.67,0,0,1,.13-4.63,15.41,15.41,0,0,1-.13,4.63Z" style="fill:#263238"></path><path d="M569.75,255.17a6.4,6.4,0,0,1-.25-2.49,6.32,6.32,0,0,1,.25-2.48,6.68,6.68,0,0,1,.24,2.48A6.75,6.75,0,0,1,569.75,255.17Z" style="fill:#263238"></path><path d="M572.22,254a8,8,0,0,1-.15-2.73,7.58,7.58,0,0,1,.34-2.72,7.71,7.71,0,0,1,.15,2.73A7.58,7.58,0,0,1,572.22,254Z" style="fill:#263238"></path><path d="M574.59,251.58a6,6,0,0,1-.13-2.69,6.13,6.13,0,0,1,.59-2.63,10.19,10.19,0,0,1-.1,2.67A9.79,9.79,0,0,1,574.59,251.58Z" style="fill:#263238"></path><path d="M576.59,249.58a11.17,11.17,0,0,1,0-3.24,10.56,10.56,0,0,1,.54-3.19,11.17,11.17,0,0,1,0,3.24A10.56,10.56,0,0,1,576.59,249.58Z" style="fill:#263238"></path><path d="M578.77,245.29a7.48,7.48,0,0,1,0-2.68,7.37,7.37,0,0,1,.5-2.64,7.56,7.56,0,0,1,0,2.69A7.21,7.21,0,0,1,578.77,245.29Z" style="fill:#263238"></path><path d="M559.74,255.44a5.48,5.48,0,0,1,.2-3.8c.14,0,.1.88,0,1.91S559.88,255.43,559.74,255.44Z" style="fill:#263238"></path><path d="M557.1,255.51a11.87,11.87,0,0,1,.38-4.84,6.31,6.31,0,0,1,0,2.44A6.25,6.25,0,0,1,557.1,255.51Z" style="fill:#263238"></path><path d="M554.77,253.92a38.16,38.16,0,0,1,.06-4.62,4.26,4.26,0,0,1,.39,2.32A4.18,4.18,0,0,1,554.77,253.92Z" style="fill:#263238"></path><path d="M552.33,253.16a9,9,0,0,1-.07-2.94,8.75,8.75,0,0,1,.41-2.92,9.14,9.14,0,0,1,.08,2.94A9,9,0,0,1,552.33,253.16Z" style="fill:#263238"></path><path d="M550.13,250.49a6.48,6.48,0,0,1,0-2.86,9.83,9.83,0,0,1,.57-2.8,7.74,7.74,0,0,1-.08,2.86A12.46,12.46,0,0,1,550.13,250.49Z" style="fill:#263238"></path><path d="M548.47,246.78a10.73,10.73,0,0,1,.24-5.73,11.57,11.57,0,0,1,0,2.87A12.15,12.15,0,0,1,548.47,246.78Z" style="fill:#263238"></path><rect x="559.94" y="241.05" width="7.44" height="1.08" style="fill:#fafafa"></rect><rect x="542.83" y="204.08" width="50.2" height="18.45" style="fill:#FF725E"></rect><rect x="538.38" y="204.08" width="50.2" height="18.45" style="fill:#FF725E"></rect><path d="M593,209.93c0,.14-12.18.25-27.21.25s-27.22-.11-27.22-.25,12.18-.24,27.22-.24S593,209.8,593,209.93Z" style="fill:#fafafa"></path><path d="M592.93,206.35c0,.14-12.28.24-27.42.24s-27.42-.1-27.42-.24,12.27-.25,27.42-.25S592.93,206.21,592.93,206.35Z" style="fill:#fafafa"></path><path d="M593,217.1c0,.13-12.18.24-27.21.24s-27.22-.11-27.22-.24,12.18-.25,27.22-.25S593,217,593,217.1Z" style="fill:#fafafa"></path><path d="M592.83,220.3c0,.14-12.19.25-27.22.25s-27.22-.11-27.22-.25,12.19-.24,27.22-.24S592.83,220.17,592.83,220.3Z" style="fill:#fafafa"></path><path d="M592.93,213.52c0,.13-12.28.24-27.42.24s-27.42-.11-27.42-.24,12.27-.25,27.42-.25S592.93,213.38,592.93,213.52Z" style="fill:#fafafa"></path><g style="opacity:0.6000000000000001"><rect x="589.19" y="204.08" width="3.84" height="18.45"></rect></g><path d="M588.58,204.08a2.39,2.39,0,0,1-.47.28l-1.42.73-5.24,2.6L564,216.13l-.11.05-.1-.05-.36-.17-17.78-8.31-5.36-2.57-1.45-.72a2.11,2.11,0,0,1-.49-.28,2.07,2.07,0,0,1,.53.19l1.49.64,5.43,2.43,17.84,8.18.36.16h-.21l17.48-8.31,5.31-2.46,1.45-.64A2.1,2.1,0,0,1,588.58,204.08Z" style="fill:#263238"></path><path d="M564.15,213a2.82,2.82,0,0,0-2.85,1.8,2.85,2.85,0,0,0,1,3.22,2.88,2.88,0,0,0,3.38-.13,2.84,2.84,0,0,0-2.12-5" style="fill:#263238"></path><path d="M580.29,204.08s-.26-.48-.74-1.34a20.54,20.54,0,0,0-2.4-3.4,13.73,13.73,0,0,0-4.81-3.69,18.73,18.73,0,0,0-7.35-1.27,22.56,22.56,0,0,0-7.36,1.41,13.14,13.14,0,0,0-5.08,3.33,10.13,10.13,0,0,0-2.13,3.5c-.33.93-.39,1.48-.43,1.47s0-.14,0-.4a8,8,0,0,1,.23-1.13,9.73,9.73,0,0,1,2.07-3.68,13.13,13.13,0,0,1,5.16-3.51,22.26,22.26,0,0,1,7.52-1.48,18.41,18.41,0,0,1,7.53,1.35,13.58,13.58,0,0,1,4.91,3.88,17.94,17.94,0,0,1,2.3,3.53c.21.45.37.8.46,1S580.31,204.07,580.29,204.08Z" style="fill:#263238"></path><rect x="328.15" y="314.52" width="2.82" height="83.99" transform="translate(659.12 713.03) rotate(180)" style="fill:#263238"></rect><path d="M380.92,290a13,13,0,0,0-.06-17.11l-20.74-23.52-5.56,15.52c.38.25,16.15,17.16,16.15,17.16L357.16,299a9.71,9.71,0,0,0-1.61,9.25l.61,2.48a6,6,0,0,0,8.26,4l3.81-1.71a.8.8,0,0,0,.34-1.17h0a.8.8,0,0,0-.67-.37h-5.17a2.35,2.35,0,0,1-2.28-1.79h0Z" style="fill:#455a64"></path><path d="M373.63,279.06c.1.09-.56.95-1.49,1.87s-1.67,1.66-1.78,1.58.49-1,1.43-1.93S373.53,279,373.63,279.06Z" style="fill:#263238"></path><path d="M330.35,205.07A10.87,10.87,0,0,0,319.48,216c0,4.78.09,9.89.27,12.53.41,5.79,6.1,6.34,6.1,6.34s.46,6.11.42,7.65l13.94.06,1-26.22a10.88,10.88,0,0,0-10.87-11.29Z" style="fill:#455a64"></path><path d="M325.85,234.87a13.77,13.77,0,0,0,7.45-2.67s-1.65,4.27-7.31,4.09Z" style="fill:#263238"></path><path d="M353.15,243.86c-4.9-2-11.59-1.53-11.59-1.53l-14.25.17h-.12a12.3,12.3,0,0,0-12.5,14.5l1.86,10.29s-3,6.92,1.2,12.78a13.08,13.08,0,0,1,2.24,7.39l-3.94,17.78,39-.33-5.71-14.06,4-21.3,9.38,6.12,13.6-9.89L363.18,251c-4.9-5.32-6.74-6.37-10-7.17" style="fill:#FF725E"></path><path d="M352.55,302.53c5.72,6.66,8.12,15.66,8.35,24.44s-1.56,17.46-3.33,26.06l-6.69,32.5c-.31,1.51-1.14,3.43-2.68,3.24s-1.89-2.47-3-3.66c-1.51-1.56-4.15-.84-6,.31s-3.7,2.7-5.87,2.5c-2.74-.25-4.8-3.29-7.55-3.07-3,.25-4.84,4.34-7.88,4.18-2.43-.13-3.78-2.89-5.91-4.07-3.57-2-8.68.73-11.88-1.82-1.8-1.44-2.19-4.11-1.62-6.35a24.59,24.59,0,0,1,3.07-6.18c13.72-23.5,4.68-55.68,19.61-78.42" style="fill:#FF725E"></path><path d="M314.78,253.72c0-.14,11.14-.5,24.89-.82s24.9-.46,24.9-.32-11.14.5-24.89.81S314.78,253.85,314.78,253.72Z" style="fill:#f5f5f5"></path><path d="M317.14,265.83c0-.13,13.09-.48,29.25-.77s29.26-.42,29.26-.28-13.09.48-29.25.77S317.14,266,317.14,265.83Z" style="fill:#f5f5f5"></path><path d="M319.74,282.26c0-.13,6.91-.42,15.44-.63s15.46-.29,15.46-.15-6.91.42-15.44.64S319.74,282.4,319.74,282.26Z" style="fill:#f5f5f5"></path><path d="M319.26,295.66a5.12,5.12,0,0,1,1.21-.1l3.28-.12c2.77-.1,6.6-.32,10.8-.75s8-1,10.74-1.47l3.23-.56a5.9,5.9,0,0,1,1.2-.15,5.92,5.92,0,0,1-1.16.34c-.75.19-1.85.44-3.21.71-2.73.55-6.52,1.18-10.75,1.61s-8.06.6-10.84.62c-1.39,0-2.52,0-3.29,0A6.54,6.54,0,0,1,319.26,295.66Z" style="fill:#f5f5f5"></path><path d="M313.83,309.93a9.32,9.32,0,0,1,1.65.07c1.06.1,2.59.19,4.49.26a89.15,89.15,0,0,0,29.27-3.78c1.82-.55,3.28-1,4.28-1.39a9.74,9.74,0,0,1,1.58-.49,11.09,11.09,0,0,1-1.51.67c-1,.41-2.43,1-4.25,1.54a81.7,81.7,0,0,1-14.52,3.27,80.37,80.37,0,0,1-14.87.52c-1.9-.11-3.44-.26-4.49-.41A11.57,11.57,0,0,1,313.83,309.93Z" style="fill:#f5f5f5"></path><path d="M313.39,325.76a1.66,1.66,0,0,1,.49,0l1.38.16c1.2.15,2.93.34,5.08.52s4.72.31,7.57.36,6,0,9.27-.27,6.4-.64,9.21-1.08,5.34-1,7.44-1.46,3.79-.93,4.95-1.26l1.35-.36a1.86,1.86,0,0,1,.48-.09,1.83,1.83,0,0,1-.45.19l-1.32.44c-1.15.39-2.83.88-4.93,1.41s-4.62,1.09-7.44,1.58-6,.87-9.25,1.12-6.45.29-9.32.24-5.43-.24-7.59-.48-3.89-.46-5.08-.67l-1.37-.25A2.8,2.8,0,0,1,313.39,325.76Z" style="fill:#f5f5f5"></path><path d="M310.21,343.44s.57.39,1.68.94a14.85,14.85,0,0,0,5,1.4,25.43,25.43,0,0,0,7.69-.46c2.88-.53,6-1.43,9.35-2a48.62,48.62,0,0,1,17.33.33,46.29,46.29,0,0,1,5.11,1.29c.59.18,1.05.35,1.36.46a2.9,2.9,0,0,1,.46.19,15,15,0,0,1-1.87-.47c-1.2-.32-2.94-.74-5.12-1.13a51,51,0,0,0-17.19-.19c-3.33.55-6.44,1.44-9.35,1.95a25.22,25.22,0,0,1-7.81.35,14,14,0,0,1-5-1.57,9.24,9.24,0,0,1-1.21-.78A1.92,1.92,0,0,1,310.21,343.44Z" style="fill:#f5f5f5"></path><path d="M305.68,363.78a2.47,2.47,0,0,1,.46-.23,8.27,8.27,0,0,1,1.4-.45A13.37,13.37,0,0,1,313,363a34.7,34.7,0,0,1,7.63,2.49c2.77,1.11,5.85,2.47,9.29,2.63a31.55,31.55,0,0,0,9.59-1.32,76.91,76.91,0,0,1,7.81-1.78,19.79,19.79,0,0,1,5.41-.13,12.08,12.08,0,0,1,1.45.28,1.82,1.82,0,0,1,.49.14c0,.05-.7-.1-2-.23a21.41,21.41,0,0,0-5.33.29c-2.24.36-4.84,1.09-7.76,1.87a31.1,31.1,0,0,1-9.73,1.37c-3.55-.17-6.67-1.57-9.44-2.7a36.39,36.39,0,0,0-7.51-2.57,14,14,0,0,0-5.31-.09C306.34,363.53,305.7,363.83,305.68,363.78Z" style="fill:#f5f5f5"></path><path d="M341.23,384.48a1.71,1.71,0,0,1,.06-.37l.25-1.06c.22-1,.55-2.33,1-4.08.82-3.55,2-8.69,3.08-15.1a161,161,0,0,0,2.42-22.7,91.16,91.16,0,0,0-.61-13.45c-.5-4.67-.91-9.5-1.34-14.45s-.87-9.78-1.43-14.43-1.35-9.11-1.6-13.42a226.14,226.14,0,0,1,0-22.89,107.66,107.66,0,0,1,1.3-15.38c.32-1.79.67-3.17.91-4.1l.31-1a1.93,1.93,0,0,1,.12-.36,3.71,3.71,0,0,1-.08.37c-.06.26-.15.61-.26,1.06-.21.93-.52,2.31-.81,4.11a113,113,0,0,0-1.14,15.35c-.15,6.5-.49,14.27.11,22.84.26,4.29,1.09,8.74,1.63,13.4s1,9.5,1.44,14.45.83,9.78,1.33,14.44a91.77,91.77,0,0,1,.58,13.51,155.57,155.57,0,0,1-2.53,22.75c-1.15,6.41-2.36,11.55-3.23,15.08-.44,1.77-.8,3.14-1.06,4.06l-.29,1.06Z" style="fill:#f5f5f5"></path><path d="M316,387.32a1.85,1.85,0,0,1,.11-.37l.36-1.05c.31-.93.85-2.27,1.41-4,1.2-3.51,2.75-8.66,4.38-15.09s3.28-14.17,4.64-22.84a201.62,201.62,0,0,0,2.51-28.39c0-5.06-.25-10-.41-14.78s-.32-9.39-.38-13.78c-.17-8.79.07-16.71.6-23.34a132.47,132.47,0,0,1,2.13-15.59c.33-1.83.71-3.22.93-4.18.11-.45.2-.81.26-1.08a2.81,2.81,0,0,1,.11-.36,1.71,1.71,0,0,1-.06.37c-.05.27-.12.63-.22,1.1-.18,1-.53,2.36-.83,4.19a143,143,0,0,0-2,15.58c-.48,6.62-.68,14.52-.49,23.3.08,4.39.23,9,.42,13.77s.43,9.72.42,14.8A199,199,0,0,1,327.31,344c-1.39,8.68-3.09,16.42-4.75,22.86s-3.28,11.57-4.54,15.07c-.59,1.76-1.16,3.09-1.5,4l-.41,1A2.19,2.19,0,0,1,316,387.32Z" style="fill:#f5f5f5"></path><path d="M354.93,242.91a15.63,15.63,0,0,0-.83,4.69,16,16,0,0,0,.82,5.07,24.14,24.14,0,0,0,2.77,5.68c1.22,1.91,2.55,3.61,3.75,5.17l3.2,4.14,2.12,2.81a6.25,6.25,0,0,1,.73,1.08,6.24,6.24,0,0,1-.88-1l-2.24-2.72c-1-1.18-2.06-2.56-3.28-4.07a61.76,61.76,0,0,1-3.81-5.18,23.94,23.94,0,0,1-2.8-5.81,16,16,0,0,1-.73-5.22,11.74,11.74,0,0,1,.63-3.5c.15-.39.28-.69.38-.89A1.6,1.6,0,0,1,354.93,242.91Z" style="fill:#f5f5f5"></path><path d="M318.29,280.71a7.53,7.53,0,0,1-.15-1.48c-.07-1-.12-2.35-.13-4.06a99.25,99.25,0,0,1,3.39-26.49c.45-1.65.85-3,1.16-3.89a9.4,9.4,0,0,1,.51-1.39,7.2,7.2,0,0,1-.33,1.45c-.25.92-.6,2.26-1,3.92a118.39,118.39,0,0,0-3.39,26.4c0,1.71,0,3.09,0,4.05A10.21,10.21,0,0,1,318.29,280.71Z" style="fill:#f5f5f5"></path><path d="M302.06,383a.68.68,0,0,1-.05-.24c0-.19-.05-.43-.08-.72a8,8,0,0,1-.06-1.18,10.29,10.29,0,0,1,.08-1.6,28.3,28.3,0,0,1,3.19-9.67c1.89-3.88,4.55-8.3,6.05-13.79s2.37-11.68,3.18-18.19c1.66-13,3.17-24.8,4.27-33.38.56-4.24,1-7.68,1.35-10.11.16-1.16.29-2.08.39-2.74l.11-.71a1,1,0,0,1,.06-.25,1.19,1.19,0,0,1,0,.25q0,.29-.06.72l-.3,2.76c-.29,2.43-.7,5.88-1.2,10.12-1.06,8.58-2.52,20.37-4.12,33.4-.81,6.51-1.61,12.76-3.24,18.25s-4.25,10-6.16,13.82a28.86,28.86,0,0,0-3.32,9.54A22.4,22.4,0,0,0,302.06,383Z" style="fill:#f5f5f5"></path><g style="opacity:0.2"><path d="M353.11,269.61a2.45,2.45,0,0,0-2.5.68,6.81,6.81,0,0,0-1.4,2.33c-1,2.34-2,4.7-3,7.06a14.7,14.7,0,0,0-1.53,6c.12,3.1,2.15,5.77,4.08,8.21a2.62,2.62,0,0,0,1.15,1c.49.14,1.14-.15,1.16-.66s-.49-.79-.83-1.14c-.91-.94-.74-2.45-.51-3.73q1.77-9.94,3.53-19.87"></path></g><polygon points="369.71 398.61 364.42 374.64 388.64 374.64 395.69 398.61 369.71 398.61" style="fill:#ebebeb"></polygon><polygon points="364.42 374.64 356.93 398.61 369.71 398.61 364.42 374.64" style="fill:#e0e0e0"></polygon><path d="M386.52,378.85a73.77,73.77,0,0,1-8.61.25,73.91,73.91,0,0,1-8.61-.25,78.26,78.26,0,0,1,8.61-.24A78.11,78.11,0,0,1,386.52,378.85Z" style="fill:#263238"></path><path d="M381.53,383.91a71.17,71.17,0,0,1-11.68,0,68.34,68.34,0,0,1,11.68,0Z" style="fill:#263238"></path><path d="M387.75,383.22c0,.13-.47.24-1,.24s-1-.11-1-.24.47-.25,1-.25S387.75,383.08,387.75,383.22Z" style="fill:#263238"></path><path d="M383.14,388a71.05,71.05,0,0,1-11.67,0,68.22,68.22,0,0,1,11.67,0Z" style="fill:#263238"></path><path d="M389.36,387.29c0,.13-.46.24-1,.24s-1-.11-1-.24.46-.25,1-.25S389.36,387.15,389.36,387.29Z" style="fill:#263238"></path><path d="M384.75,392.05a71.05,71.05,0,0,1-11.67,0,68.22,68.22,0,0,1,11.67,0Z" style="fill:#263238"></path><path d="M391,391.36c0,.13-.46.24-1,.24s-1-.11-1-.24.46-.25,1-.25S391,391.22,391,391.36Z" style="fill:#263238"></path><rect x="381.55" y="213.38" width="115.48" height="46.25" transform="translate(-14.4 28.96) rotate(-3.71)" style="fill:#FF725E"></rect><g style="opacity:0.2"><path d="M409,244c.39,5-2.94,9.64-11,10.27a19.53,19.53,0,0,1-11-2.2l2.19-5.2a13.59,13.59,0,0,0,8.22,1.92c3.27-.25,5.18-1.78,5-4.07s-1.73-3.56-6.85-3.17l-7.22.56.22-16,17.22-1.33.41,5.24-11.78.91,0,5.4,2.3-.18C405,235.51,408.64,239,409,244Z" style="fill:#fff"></path><path d="M419.35,237.93c-.72-9.32,4-15,11-15.54s12.51,4.35,13.23,13.67-4,15-11,15.54S420.07,247.25,419.35,237.93ZM437,236.57c-.49-6.42-3-8.9-6.22-8.65s-5.28,3.09-4.79,9.5,3,8.9,6.19,8.65S437.47,243,437,236.57Z" style="fill:#fff"></path><path d="M453.81,228.57c-.37-4.76,2.3-8,6.41-8.32s7.21,2.44,7.58,7.24-2.26,8-6.37,8.33S454.17,233.33,453.81,228.57Zm10-.77c-.24-3-1.52-4.38-3.29-4.25s-2.83,1.72-2.6,4.71,1.56,4.38,3.29,4.25S464,230.83,463.77,227.8Zm13.3-8.53,4.8-.37-17.1,29.72L460,249Zm-3,21.13c-.36-4.76,2.31-8,6.38-8.32s7.25,2.48,7.62,7.24-2.3,8-6.42,8.33S474.4,245.16,474,240.4Zm9.93-.77c-.23-3-1.52-4.38-3.29-4.25s-2.84,1.68-2.6,4.71,1.55,4.38,3.29,4.25S484.19,242.62,484,239.63Z" style="fill:#fff"></path></g><path d="M404.7,244.18l.8-2.15a7,7,0,0,0,4,1c1.65-.11,2.28-.7,2.23-1.44-.15-2.24-7-.23-7.32-4.68-.14-2,1.39-3.85,4.8-4.08a8.08,8.08,0,0,1,4.24.78l-.72,2.17a6.8,6.8,0,0,0-3.39-.72c-1.64.11-2.23.77-2.18,1.52.15,2.21,7,.22,7.31,4.62.14,2-1.41,3.83-4.83,4.06A8.58,8.58,0,0,1,404.7,244.18Z" style="fill:#f5f5f5"></path><path d="M432.94,240.88l-5.57.38-.88,2.64-2.85.19,4.54-12.35,2.74-.19,6.17,11.63-2.91.2Zm-1-2-2.22-4.46-1.59,4.72Z" style="fill:#f5f5f5"></path><path d="M446.1,230.53l2.77-.19.66,9.73,6-.4.16,2.26-8.79.59Z" style="fill:#f5f5f5"></path><path d="M475,238.39l.15,2.23-9.29.63-.81-12,9.06-.61.15,2.23-6.3.42.17,2.61,5.57-.38.15,2.16-5.57.38.19,2.77Z" style="fill:#f5f5f5"></path><path d="M423.29,227.4a2.08,2.08,0,1,1,2.23,1.78A2,2,0,0,1,423.29,227.4Zm3.25-.27a1.18,1.18,0,1,0-2.36.2,1.18,1.18,0,1,0,2.36-.2Z" style="fill:#263238"></path><path d="M431.56,225.5l.08,1,1.75-.15.06.71-1.75.14.12,1.38-.88.08-.32-3.79,2.86-.24.06.71Z" style="fill:#263238"></path><path d="M437.71,225l.08,1,1.76-.15.05.7-1.75.15.12,1.38-.87.08-.32-3.79,2.85-.24.06.7Z" style="fill:#263238"></path><path d="M446.12,226.66l.06.71-2.93.24-.32-3.78,2.85-.24.06.7-2,.17.07.82,1.75-.15.06.68L444,226l.08.88Z" style="fill:#263238"></path><path d="M452,226.87l-.82-1h0l-.76.06.09,1.05-.88.08-.32-3.78,1.64-.14c1-.09,1.68.38,1.76,1.23a1.25,1.25,0,0,1-.68,1.26l.95,1.14Zm-1.08-3-.71.07.11,1.31.71-.06c.53,0,.78-.32.75-.72S451.43,223.83,450.9,223.87Z" style="fill:#263238"></path><path d="M463.6,434.85a1.58,1.58,0,0,1,0-.28c0-.2,0-.47,0-.81,0-.73,0-1.77,0-3.11,0-2.72,0-6.64-.09-11.6l.16.15-57.32.1c.11-.11-.25.24.24-.25h0v8q0,4,0,7.76l-.23-.24,40.88.11,12,.07,3.25,0,.85,0h.3l-.27,0h-.82l-3.2,0-12,.06-41,.11H406v-.24q0-3.8,0-7.76v-8h0l.25-.25,57.32.1h.15v.15c0,5-.07,8.95-.09,11.69,0,1.33,0,2.35,0,3.08,0,.32,0,.58,0,.78A2.06,2.06,0,0,1,463.6,434.85Z" style="fill:#263238"></path><path d="M686,276.59a1.58,1.58,0,0,1,0-.28c0-.2,0-.47,0-.81,0-.73,0-1.77,0-3.11,0-2.72,0-6.64-.08-11.6l.15.15-57.32.1c.11-.11-.25.24.24-.25h0v15.79l-.24-.24,40.88.11,12,.07,3.25,0,.85,0h.3a1.39,1.39,0,0,1-.27,0l-.82,0-3.2,0-12,.06-41,.11h-.24v-8c0-1.32,0-2.65,0-4v-4h0l.25-.25,57.32.1h.15v.15c0,5-.06,8.95-.08,11.69,0,1.33,0,2.35,0,3.08l0,.78A2.06,2.06,0,0,1,686,276.59Z" style="fill:#263238"></path></g><g id="freepik--Plants--inject-9"><path d="M63.36,396.62a11.75,11.75,0,0,1,8.18,4.27,20.75,20.75,0,0,1,4.11,8.46c1.53,5.93.5,12.9-1.24,18.77-6.38-2.34-10.27-9.2-12-12.81-2.77-5.69-4.32-17.67,1-18.69" style="fill:#FF725E"></path><path d="M83.56,435.36a10.08,10.08,0,0,1-.38-10.09,13.37,13.37,0,0,1,8.1-6.39c1.56-.47,3.38-.65,4.73.27a4.32,4.32,0,0,1,1.62,4,8.72,8.72,0,0,1-1.88,4.12c-3.15,4.19-7,7.67-12.19,8.05" style="fill:#FF725E"></path><path d="M84.1,455.13a7.07,7.07,0,0,1-.28-1.23c-.16-.88-.37-2-.63-3.38a35.16,35.16,0,0,1-.6-11.32,21.63,21.63,0,0,1,4.29-10.46,14.78,14.78,0,0,1,2.45-2.43,8.56,8.56,0,0,1,.76-.54c.18-.12.28-.17.29-.16a23.3,23.3,0,0,0-3.26,3.33A22.3,22.3,0,0,0,83,439.26a37.91,37.91,0,0,0,.47,11.21c.22,1.43.39,2.59.49,3.4A6.82,6.82,0,0,1,84.1,455.13Z" style="fill:#263238"></path><path d="M65.35,405.63a3,3,0,0,1,.26.49c.16.37.38.84.64,1.43.56,1.25,1.34,3.06,2.28,5.31,1.89,4.49,4.42,10.74,7,17.7s4.87,13.31,6.42,17.93c.78,2.31,1.39,4.19,1.8,5.49l.46,1.5a2.24,2.24,0,0,1,.13.53,3.51,3.51,0,0,1-.21-.5L83.64,454c-.48-1.33-1.13-3.18-1.93-5.43-1.64-4.6-3.92-10.93-6.55-17.89S70.06,417.5,68.24,413c-.89-2.23-1.62-4.05-2.15-5.36l-.57-1.47A3.22,3.22,0,0,1,65.35,405.63Z" style="fill:#263238"></path><path d="M76.61,442a23.53,23.53,0,0,0-18.15-11.5c-1.89-.15-4.17.15-5,1.84s.25,3.72,1.53,5.13a20.11,20.11,0,0,0,21.72,5" style="fill:#FF725E"></path><path d="M61.29,435.58a5.92,5.92,0,0,1,1.19.06,10.49,10.49,0,0,1,1.38.17,18,18,0,0,1,1.81.36,18.87,18.87,0,0,1,2.15.61,24.64,24.64,0,0,1,2.4.94,24,24,0,0,1,9.19,7.22,24.52,24.52,0,0,1,1.46,2.12A19.75,19.75,0,0,1,82,449a16,16,0,0,1,.73,1.69,9.1,9.1,0,0,1,.46,1.31,6,6,0,0,1,.3,1.15c-.09,0-.53-1.61-1.77-4a20.88,20.88,0,0,0-1.12-1.91,23.4,23.4,0,0,0-1.46-2.07A26.91,26.91,0,0,0,75,441.11a27.39,27.39,0,0,0-4.93-3,24.29,24.29,0,0,0-2.35-1c-.74-.29-1.46-.47-2.11-.66C63,435.78,61.28,435.68,61.29,435.58Z" style="fill:#263238"></path><path d="M651.05,435.06c.75-3-1.22-6-3.42-8.11s-4.83-4.07-6-6.92c-1.87-4.62.58-10.63-2.59-14.48-1.87-2.26-5.19-3-6.85-5.42a12.4,12.4,0,0,1-1.51-4.33,44.06,44.06,0,0,0-11.07-20.44A38.16,38.16,0,0,0,624,395.1c1.29,2.42,2.87,4.78,3.31,7.49.71,4.39-1.72,8.94-.62,13.26,1.27,4.93,6.84,8.21,7.13,13.29.25,4.3-3.48,8.1-3.18,12.39a11.63,11.63,0,0,0,1.94,5.09c3.36,5.51,8.27,9.29,15.67,9.13l9.07.26Z" style="fill:#FF725E"></path><g style="opacity:0.30000000000000004"><path d="M651.05,435.06c.75-3-1.22-6-3.42-8.11s-4.83-4.07-6-6.92c-1.87-4.62.58-10.63-2.59-14.48-1.87-2.26-5.19-3-6.85-5.42a12.4,12.4,0,0,1-1.51-4.33,44.06,44.06,0,0,0-11.07-20.44A38.16,38.16,0,0,0,624,395.1c1.29,2.42,2.87,4.78,3.31,7.49.71,4.39-1.72,8.94-.62,13.26,1.27,4.93,6.84,8.21,7.13,13.29.25,4.3-3.48,8.1-3.18,12.39a11.63,11.63,0,0,0,1.94,5.09c3.36,5.51,8.27,9.29,15.67,9.13l9.07.26Z"></path></g><path d="M657.12,455.94a7.24,7.24,0,0,0,2.5-.06,16,16,0,0,0,2.94-.76,12.46,12.46,0,0,0,3.63-2,5.16,5.16,0,0,0,1.49-2,10,10,0,0,0,.41-2.71,27.17,27.17,0,0,1,.19-2.94,8.25,8.25,0,0,1,1.09-2.92c1.06-1.89,2.83-3.67,3.39-6.23s.14-5.22-.3-7.95-.86-5.68.17-8.52,2.93-5.41,3.91-8.61.49-6.71.68-10.14a13.23,13.23,0,0,1,1.15-5c.72-1.61,1.73-3.13,2.52-4.82,1.59-3.43,1.85-7.3,2.27-11.1.2-1.91.41-3.85.62-5.8a28,28,0,0,1,1-5.81,52.13,52.13,0,0,1,2.14-5.62,18.23,18.23,0,0,0,1-2.94,30.33,30.33,0,0,0,.27-3.12,36.74,36.74,0,0,0-.28-6.28c-.26-2.09-.64-4.16-.88-6.26l0-.36,0-.41-.37.18a14.15,14.15,0,0,0-4.86,4.15,22.19,22.19,0,0,0-3,5.55c-1.49,3.9-2,8-2.76,11.89a32.18,32.18,0,0,1-3.66,11c-1,1.62-2.18,3.1-3.22,4.68a12.78,12.78,0,0,0-2.22,5.18c-.52,3.84,1.61,7.2,1.19,10.6a11.66,11.66,0,0,1-1.63,4.72c-.81,1.45-1.77,2.8-2.68,4.16a26.23,26.23,0,0,0-2.41,4.19,13.22,13.22,0,0,0-1.09,4.56c-.2,3.06.25,6,0,8.7a20,20,0,0,1-2.2,7.46c-1.08,2.24-2.29,4.26-3.3,6.23a31.18,31.18,0,0,0-1.36,2.89,14.36,14.36,0,0,0-.78,2.88,18,18,0,0,0,0,5.17,13,13,0,0,0,2.63,6.59,6.43,6.43,0,0,0,.74.79,3.84,3.84,0,0,0,.6.5c.34.25.52.36.52.36a10.55,10.55,0,0,1-1.76-1.72,13.1,13.1,0,0,1-2.5-6.55,17.58,17.58,0,0,1,.08-5.1,14.38,14.38,0,0,1,.79-2.8,29.59,29.59,0,0,1,1.37-2.86c1-2,2.24-4,3.34-6.22a20.4,20.4,0,0,0,2.28-7.59c.22-2.8-.22-5.71,0-8.7a12.94,12.94,0,0,1,1.06-4.4,26.74,26.74,0,0,1,2.39-4.11c.91-1.35,1.88-2.71,2.72-4.19a12.18,12.18,0,0,0,1.7-4.91c.42-3.62-1.7-7-1.17-10.57a12.45,12.45,0,0,1,2.14-5c1-1.55,2.23-3,3.24-4.69a32.62,32.62,0,0,0,3.75-11.18c.75-3.92,1.27-8,2.74-11.79a22,22,0,0,1,2.89-5.4,13.33,13.33,0,0,1,4.66-4l-.42-.23,0,.36c.24,2.12.63,4.2.89,6.27a36.59,36.59,0,0,1,.27,6.18,29.25,29.25,0,0,1-.26,3,19.21,19.21,0,0,1-1,2.84,51.36,51.36,0,0,0-2.16,5.68,29,29,0,0,0-1,5.91c-.21,1.95-.41,3.89-.61,5.8-.42,3.81-.68,7.62-2.21,10.93-.76,1.65-1.76,3.17-2.51,4.83a14,14,0,0,0-1.19,5.23c-.17,3.5.3,6.92-.63,10s-2.88,5.68-3.87,8.61-.59,6-.14,8.73.91,5.38.34,7.8-2.23,4.21-3.31,6.15a8.54,8.54,0,0,0-1.11,3,25.73,25.73,0,0,0-.17,3,9.13,9.13,0,0,1-.37,2.63,4.79,4.79,0,0,1-1.4,1.92,12.3,12.3,0,0,1-3.54,2,15.33,15.33,0,0,1-2.9.81,12.46,12.46,0,0,1-1.84.19Z" style="fill:#263238"></path><path d="M685.17,348.94a1.1,1.1,0,0,0-.09.27l-.19.82c-.18.71-.38,1.79-.72,3.14s-1.16,2.87-1.85,4.75-1.45,4-2.12,6.45-1.28,5.11-1.9,8a34,34,0,0,1-2.85,8.87c-.74,1.48-1.57,3-2.22,4.61a21.25,21.25,0,0,0-1.28,5.21,106.28,106.28,0,0,1-1.89,11c-1.78,7.44-3.47,14.53-5,21s-3,12.23-4.2,17.12l-2.79,11.55c-.3,1.33-.55,2.38-.72,3.15-.07.33-.13.6-.18.82a1.44,1.44,0,0,0,0,.28,1.08,1.08,0,0,0,.1-.27c.06-.21.14-.48.23-.81l.83-3.12c.72-2.76,1.73-6.68,3-11.5s2.69-10.67,4.32-17.09,3.26-13.55,5.06-21a104.81,104.81,0,0,0,1.89-11,21,21,0,0,1,1.22-5.08c.64-1.6,1.45-3.09,2.19-4.58a34.09,34.09,0,0,0,2.84-9c.6-2.89,1.18-5.57,1.83-8s1.33-4.57,2-6.43,1.45-3.42,1.77-4.81.48-2.45.61-3.18c.06-.33.11-.61.14-.83A1,1,0,0,0,685.17,348.94Z" style="fill:#263238"></path><path d="M654.19,456c6.32-2.75,9.31-12.87,7.67-19.57s-5.2-13.06-5-19.95c.15-5.3,2.54-10.45,2-15.72-.77-7.1-6.84-13.3-5.86-20.38.54-4,3.28-7.43,3.6-11.43.4-4.91-2.86-9.25-4.63-13.84-2.72-7-2-14.83-2.25-22.35s-2.1-15.78-8.17-20.23c-1.76,6.14-3.95,10.22-4.5,18.76-.2,3.07,2.6,9.35,2.24,16.08-.22,4-.52,8.05-.78,12.07s-.5,7.91.43,11.72c.71,2.92,2.11,5.66,2.54,8.64.81,5.6-1.89,11.21-1.38,16.84.43,4.77,3.14,9.18,3.2,14,.09,6.73-5.06,13.06-3.67,19.65.69,3.27,2.95,6.11,3.27,9.43.26,2.58-.7,5.16-.5,7.75.31,4.16,7.66,8.29,11.82,8.56" style="fill:#FF725E"></path><path d="M642.35,319a2.45,2.45,0,0,0,0,.36c0,.27,0,.61,0,1,0,.92,0,2.27.09,4s.75,3.82,1.17,6.25.86,5.22,1.14,8.32.43,6.51.56,10.18.28,7.66,1.59,11.62c.59,2,1.28,4,1.72,6.07a26.46,26.46,0,0,1,.44,6.51,129,129,0,0,0,0,13.91c.63,9.5,1.23,18.55,1.77,26.79s1.2,15.62,1.69,21.85.9,11.21,1.18,14.73c.15,1.71.27,3.05.35,4,.05.43.08.77.11,1a2.49,2.49,0,0,0,.05.35,1.18,1.18,0,0,0,0-.35c0-.27,0-.61-.05-1.05-.06-.95-.14-2.3-.24-4-.24-3.52-.58-8.54-1-14.74s-1-13.64-1.56-21.86-1.12-17.28-1.73-26.78a130.75,130.75,0,0,1,0-13.86,26.65,26.65,0,0,0-.47-6.64c-.45-2.14-1.15-4.14-1.74-6.11-1.31-3.91-1.44-7.84-1.63-11.49s-.32-7.09-.63-10.2-.74-5.91-1.23-8.34-1.12-4.49-1.27-6.21-.14-3.1-.2-4l-.06-1A1.26,1.26,0,0,0,642.35,319Z" style="fill:#263238"></path></g><g id="freepik--Door--inject-9"><rect x="102.92" y="133.95" width="131.06" height="322.07" style="fill:#263238"></rect><rect x="112.23" y="139.8" width="112.45" height="279.25" style="fill:#ebebeb"></rect><polygon points="112.99 274.99 170.62 253.72 170.62 139.8 112.23 139.8 112.99 274.99" style="fill:#fafafa"></polygon><rect x="211.12" y="274.99" width="6.39" height="39.99" style="fill:#263238"></rect><rect x="137.76" y="212.31" width="62.96" height="29.97" style="fill:#FF725E"></rect><path d="M198.06,212.31a4,4,0,0,1-.6-.39l-1.66-1.19-6-4.45L170,191.46l-.87-.65h.31l-18.51,15.31-5.62,4.58-1.53,1.22a4.94,4.94,0,0,1-.56.4,3.9,3.9,0,0,1,.49-.48c.38-.32.87-.75,1.48-1.29l5.52-4.69,18.41-15.43.15-.12.16.12c.27.2.57.42.86.65,7.68,5.82,14.64,11.08,19.72,14.94l5.95,4.57,1.6,1.26A5.37,5.37,0,0,1,198.06,212.31Z" style="fill:#263238"></path><path d="M148.68,228.3a4.28,4.28,0,1,1,4.27,4A4,4,0,0,1,148.68,228.3Zm6.71,0a2.44,2.44,0,1,0-2.44,2.5A2.38,2.38,0,0,0,155.39,228.3Z" style="fill:#f5f5f5"></path><path d="M167.57,227.23c0,1.74-1.3,2.82-3.39,2.82h-1.57v2.15h-1.8v-7.8h3.37C166.27,224.4,167.57,225.48,167.57,227.23Zm-1.83,0c0-.86-.55-1.36-1.66-1.36h-1.47v2.71h1.47C165.19,228.58,165.74,228.08,165.74,227.23Z" style="fill:#f5f5f5"></path><path d="M177.13,230.76v1.44h-6v-7.8H177v1.45h-4.1v1.7h3.62V229h-3.62v1.81Z" style="fill:#f5f5f5"></path><path d="M188,224.4v7.8h-1.48l-3.89-4.73v4.73H180.8v-7.8h1.49l3.88,4.74V224.4Z" style="fill:#f5f5f5"></path><path d="M106.59,441.65s0-.5,0-1.47,0-2.45,0-4.37c0-3.85,0-9.53,0-16.91,0-14.78.07-36.32.13-63.39.14-54.17.35-130.5.59-219.13v-.23H230.58v5.47c0,117.08-.05,223.31-.07,300.21v.07l0,.05L221,451.35l0,0h-.07l-108.69-.11h0l0,0L108,444c-.93-1.6-1.37-2.38-1.37-2.38s.48.77,1.42,2.36l4.27,7.2,0,0,108.69-.12-.12.05,9.41-9.42-.05.13c0-76.9,0-183.13-.07-300.21v-5.22l.24.24H107.54l.24-.23c-.32,88.6-.59,164.9-.78,219.06-.11,27.09-.2,48.63-.26,63.41,0,7.38-.07,13.08-.09,16.93q0,2.9,0,4.38C106.61,441.15,106.59,441.65,106.59,441.65Z" style="fill:#455a64"></path></g><g id="freepik--shop-sign--inject-9"><rect x="107.54" y="56.66" width="532.72" height="63.31" style="fill:#FF725E"></rect><path d="M163.84,71.51l1-.66,3.06-2,12.61-8.28h0l385.22-.17h.06l.06,0,18.21,10.9.12.07v35.46l-.11.08h0l-14,8.91-.06,0H570l-393.39-.13h-.06l-12.73-7,0,0v-.06c0-12,0-21.29,0-27.59,0-3.15,0-5.54,0-7.15s0-2.43,0-2.43,0,.83,0,2.45,0,4,0,7.16c0,6.3,0,15.58.05,27.56l-.05-.08,12.74,6.92h0L570,115.37l-.13,0,14-8.91h0l-.11.21V71.51l.12.21-18.21-10.9.13,0-385.22-.17h0l-12.64,8.2-3.08,2Z" style="fill:#fff"></path><path d="M597,115.62s.43,0,1.23-.18a5.91,5.91,0,0,0,4.28-4,9.44,9.44,0,0,0,.25-3c0-2.22,0-4.75,0-7.54,0-5.6,0-12.24-.06-19.62,0-3.7,0-7.58,0-11.59v-3a5.67,5.67,0,0,0-10.63-2.86,5.92,5.92,0,0,0-.7,2.85v3c0,4,0,7.9,0,11.6,0,7.38,0,14-.05,19.62,0,2.79,0,5.32,0,7.54a9.44,9.44,0,0,0,.25,3,6,6,0,0,0,4.28,4c.8.17,1.24.14,1.24.18a4.45,4.45,0,0,1-1.26-.09,5.87,5.87,0,0,1-3.13-1.74,6,6,0,0,1-1.35-2.25,9.67,9.67,0,0,1-.31-3.1c0-2.22,0-4.75,0-7.54,0-5.59,0-12.24-.05-19.62,0-3.7,0-7.58,0-11.6v-3a6.15,6.15,0,1,1,12.29,0v3c0,4,0,7.89,0,11.59,0,7.38,0,14-.06,19.62,0,2.79,0,5.32,0,7.54a9.67,9.67,0,0,1-.31,3.1,6,6,0,0,1-1.34,2.25,5.92,5.92,0,0,1-3.14,1.74A4.38,4.38,0,0,1,597,115.62Z" style="fill:#fff"></path><path d="M614.24,115.62s.44,0,1.24-.18a6,6,0,0,0,4.28-4,9.44,9.44,0,0,0,.25-3c0-2.22,0-4.75,0-7.54,0-5.6,0-12.24-.05-19.62,0-3.7,0-7.58,0-11.59,0-1,0-2,0-3a5.66,5.66,0,0,0-10.62-2.86,5.81,5.81,0,0,0-.7,2.85v3c0,4,0,7.9,0,11.6,0,7.38,0,14,0,19.62,0,2.79,0,5.32,0,7.54a9.42,9.42,0,0,0,.26,3,5.77,5.77,0,0,0,1.26,2.19,5.93,5.93,0,0,0,3,1.78c.8.17,1.23.14,1.23.18a4.38,4.38,0,0,1-1.25-.09,5.92,5.92,0,0,1-3.14-1.74,6.14,6.14,0,0,1-1.35-2.25,9.68,9.68,0,0,1-.3-3.1c0-2.22,0-4.75,0-7.54,0-5.59,0-12.24,0-19.62,0-3.7,0-7.58,0-11.6v-3a6.14,6.14,0,0,1,11.53-3.08,6.34,6.34,0,0,1,.76,3.09v3c0,4,0,7.89,0,11.59,0,7.38,0,14,0,19.62,0,2.79,0,5.32,0,7.54a9.4,9.4,0,0,1-.3,3.1,6,6,0,0,1-1.35,2.25,5.87,5.87,0,0,1-3.13,1.74A4.45,4.45,0,0,1,614.24,115.62Z" style="fill:#fff"></path><path d="M631.47,115.62s.43,0,1.23-.18a5.93,5.93,0,0,0,3-1.78,5.77,5.77,0,0,0,1.26-2.19,9.44,9.44,0,0,0,.25-3c0-2.22,0-4.75,0-7.54,0-5.6,0-12.24-.05-19.62,0-3.7,0-7.58,0-11.59v-3a5.67,5.67,0,0,0-10.63-2.86,5.91,5.91,0,0,0-.69,2.85c0,1,0,2,0,3,0,4,0,7.9,0,11.6,0,7.38,0,14,0,19.62,0,2.79,0,5.32,0,7.54a9.44,9.44,0,0,0,.25,3,6,6,0,0,0,4.28,4c.8.17,1.24.14,1.24.18a4.45,4.45,0,0,1-1.26-.09,5.87,5.87,0,0,1-3.13-1.74,6,6,0,0,1-1.35-2.25,9.4,9.4,0,0,1-.3-3.1c0-2.22,0-4.75,0-7.54,0-5.59,0-12.24,0-19.62,0-3.7,0-7.58,0-11.6v-3a6.33,6.33,0,0,1,.76-3.08,6.14,6.14,0,0,1,11.53,3.09v3c0,4,0,7.89,0,11.59,0,7.38,0,14-.05,19.62,0,2.79,0,5.32,0,7.54a9.68,9.68,0,0,1-.3,3.1,6.14,6.14,0,0,1-1.35,2.25,5.92,5.92,0,0,1-3.14,1.74A4.38,4.38,0,0,1,631.47,115.62Z" style="fill:#fff"></path><path d="M118.89,115.62s.44,0,1.24-.18a6,6,0,0,0,4.28-4,9.44,9.44,0,0,0,.25-3c0-2.22,0-4.75,0-7.54,0-5.6,0-12.24-.05-19.62,0-3.7,0-7.58,0-11.59,0-1,0-2,0-3a5.66,5.66,0,0,0-10.62-2.86,5.81,5.81,0,0,0-.7,2.85v3c0,4,0,7.9,0,11.6,0,7.38,0,14,0,19.62,0,2.79,0,5.32,0,7.54a9.44,9.44,0,0,0,.25,3,5.91,5.91,0,0,0,4.28,4c.8.17,1.23.14,1.23.18a4.38,4.38,0,0,1-1.25-.09,5.92,5.92,0,0,1-3.14-1.74,6,6,0,0,1-1.34-2.25,9.4,9.4,0,0,1-.31-3.1c0-2.22,0-4.75,0-7.54,0-5.59,0-12.24-.06-19.62,0-3.7,0-7.58,0-11.6v-3a6.15,6.15,0,0,1,11.54-3.08,6.33,6.33,0,0,1,.75,3.09v3c0,4,0,7.89,0,11.59,0,7.38,0,14,0,19.62,0,2.79,0,5.32,0,7.54a9.4,9.4,0,0,1-.3,3.1,6,6,0,0,1-1.35,2.25,5.87,5.87,0,0,1-3.13,1.74A4.45,4.45,0,0,1,118.89,115.62Z" style="fill:#fff"></path><path d="M136.12,115.62s.44,0,1.23-.18a5.93,5.93,0,0,0,3-1.78,5.77,5.77,0,0,0,1.26-2.19,9.42,9.42,0,0,0,.26-3c0-2.22,0-4.75,0-7.54,0-5.6,0-12.24,0-19.62,0-3.7,0-7.58,0-11.59v-3a5.66,5.66,0,1,0-11.32,0c0,1,0,2,0,3,0,4,0,7.9,0,11.6,0,7.38,0,14-.05,19.62,0,2.79,0,5.32,0,7.54a9.44,9.44,0,0,0,.25,3,6,6,0,0,0,4.28,4c.8.17,1.24.14,1.24.18a4.45,4.45,0,0,1-1.26-.09,5.87,5.87,0,0,1-3.13-1.74,6,6,0,0,1-1.35-2.25,9.4,9.4,0,0,1-.3-3.1c0-2.22,0-4.75,0-7.54,0-5.59,0-12.24,0-19.62,0-3.7,0-7.58,0-11.6v-3a6.33,6.33,0,0,1,.76-3.08,6.14,6.14,0,0,1,10.78,0,6.34,6.34,0,0,1,.76,3.09c0,1,0,2,0,3,0,4,0,7.89,0,11.59,0,7.38,0,14-.05,19.62,0,2.79,0,5.32,0,7.54a9.68,9.68,0,0,1-.3,3.1,6.14,6.14,0,0,1-1.35,2.25,5.92,5.92,0,0,1-3.14,1.74A4.38,4.38,0,0,1,136.12,115.62Z" style="fill:#fff"></path><path d="M153.34,115.62s.44,0,1.24-.18a5.91,5.91,0,0,0,4.28-4,9.44,9.44,0,0,0,.25-3c0-2.22,0-4.75,0-7.54,0-5.6,0-12.24-.06-19.62,0-3.7,0-7.58,0-11.59v-3a5.67,5.67,0,1,0-11.33,0v3c0,4,0,7.9,0,11.6,0,7.38,0,14-.06,19.62,0,2.79,0,5.32,0,7.54a9.44,9.44,0,0,0,.25,3,5.91,5.91,0,0,0,4.28,4c.8.17,1.24.14,1.23.18a4.38,4.38,0,0,1-1.25-.09,5.92,5.92,0,0,1-3.14-1.74,6.12,6.12,0,0,1-1.34-2.25,9.67,9.67,0,0,1-.31-3.1c0-2.22,0-4.75,0-7.54,0-5.59,0-12.24-.06-19.62,0-3.7,0-7.58,0-11.6v-3a6.32,6.32,0,0,1,.75-3.08,6.15,6.15,0,0,1,10.79,0,6.33,6.33,0,0,1,.75,3.09v3c0,4,0,7.89,0,11.59,0,7.38,0,14-.05,19.62,0,2.79,0,5.32,0,7.54a9.67,9.67,0,0,1-.31,3.1,6.12,6.12,0,0,1-1.34,2.25,5.92,5.92,0,0,1-3.14,1.74A4.45,4.45,0,0,1,153.34,115.62Z" style="fill:#fff"></path></g></svg>