<svg id="Component_7_1" data-name="Component 7 – 1" xmlns="http://www.w3.org/2000/svg" xmlns:xlink="http://www.w3.org/1999/xlink" width="147.56" height="147.56" viewBox="0 0 147.56 147.56">
  <defs>
    <clipPath id="clip-path">
      <rect id="Rectangle_4010" data-name="Rectangle 4010" width="147.56" height="147.56" fill="none"/>
    </clipPath>
    <filter id="Rectangle_4190" x="25.95" y="51.388" width="98.316" height="79.946" filterUnits="userSpaceOnUse">
      <feOffset dy="3" input="SourceAlpha"/>
      <feGaussianBlur stdDeviation="3" result="blur"/>
      <feFlood flood-opacity="0.161"/>
      <feComposite operator="in" in2="blur"/>
      <feComposite in="SourceGraphic"/>
    </filter>
  </defs>
  <g id="Group_15509" data-name="Group 15509" opacity="0.2">
    <g id="Group_13074" data-name="Group 13074" transform="translate(0 0)">
      <g id="Group_13073" data-name="Group 13073" clip-path="url(#clip-path)">
        <path id="Path_4125" data-name="Path 4125" d="M300.56,647.28a73.78,73.78,0,1,1-73.78-73.78,73.78,73.78,0,0,1,73.78,73.78" transform="translate(-153 -573.5)" fill="rgba(1,153,177,0.75)"/>
      </g>
    </g>
  </g>
  <g id="Group_15571" data-name="Group 15571" transform="translate(18.461)">
    <g id="Group_15563" data-name="Group 15563" transform="translate(44.679)">
      <path id="Path_5888" data-name="Path 5888" d="M312.959,126.488s-.152,0-.448-.006a10.809,10.809,0,0,0-1.311.007,14.552,14.552,0,0,0-4.881,1.125,15.014,15.014,0,0,0-6.2,4.831,13.482,13.482,0,0,0-2.164,4.428,14.878,14.878,0,0,0,1.526,11.268,12.921,12.921,0,0,0,1.949,2.585,10.45,10.45,0,0,0,2.635,2.062,6.467,6.467,0,0,0,3.306.833,4.76,4.76,0,0,0,3.2-1.292,4.632,4.632,0,0,0,1.276-3.3,6.057,6.057,0,0,0-1.162-3.51,12.009,12.009,0,0,0-6.451-4.254,15.869,15.869,0,0,0-8.136-.113,16.819,16.819,0,0,0-3.918,1.558,14.194,14.194,0,0,0-3.364,2.638c-.235.273-.5.52-.711.815l-.647.874a15.185,15.185,0,0,0-2.3,6.132,16,16,0,0,0,1.157,8.593,13.228,13.228,0,0,0,5.531,6.275,9.106,9.106,0,0,0,3.917,1.19,6.942,6.942,0,0,0,3.865-.928,6.094,6.094,0,0,0,2.615-2.849,5.189,5.189,0,0,0,.06-3.746,7.485,7.485,0,0,0-2.154-3.046,9.776,9.776,0,0,0-3.168-1.841,12.305,12.305,0,0,0-6.974-.121,13.616,13.616,0,0,0-5.72,3.189,13.053,13.053,0,0,0-3.28,5.082,14.725,14.725,0,0,0,.15,10.292,15.578,15.578,0,0,0,4.72,6.3,16.633,16.633,0,0,0,4.336,2.526c.538.205.954.351,1.238.431s.425.141.425.141-.148-.033-.434-.112-.707-.207-1.252-.4a16.289,16.289,0,0,1-4.387-2.491,15.629,15.629,0,0,1-4.8-6.325,14.875,14.875,0,0,1-.194-10.424,13.258,13.258,0,0,1,3.32-5.178,13.837,13.837,0,0,1,5.814-3.261,12.539,12.539,0,0,1,7.123.111,10.028,10.028,0,0,1,3.26,1.887,7.74,7.74,0,0,1,2.236,3.156,5.464,5.464,0,0,1-.06,3.946,6.377,6.377,0,0,1-2.732,2.987,7.234,7.234,0,0,1-4.023.97,9.4,9.4,0,0,1-4.044-1.224,13.513,13.513,0,0,1-5.66-6.411,16.284,16.284,0,0,1-1.181-8.754,15.486,15.486,0,0,1,2.348-6.256l.662-.893c.214-.3.487-.554.728-.833a14.5,14.5,0,0,1,3.436-2.693,17.111,17.111,0,0,1,3.992-1.584,16.146,16.146,0,0,1,8.286.122,12.277,12.277,0,0,1,6.6,4.371,6.337,6.337,0,0,1,1.205,3.667,4.9,4.9,0,0,1-1.361,3.488,5.012,5.012,0,0,1-3.377,1.361,6.715,6.715,0,0,1-3.433-.87,10.668,10.668,0,0,1-2.69-2.114,13.129,13.129,0,0,1-1.976-2.635,15.066,15.066,0,0,1-1.51-11.434,13.612,13.612,0,0,1,2.213-4.477,15.067,15.067,0,0,1,6.289-4.839,14.329,14.329,0,0,1,4.923-1.078,9.674,9.674,0,0,1,1.315.022C312.809,126.471,312.959,126.488,312.959,126.488Z" transform="translate(-279.965 -126.416)" fill="#263238"/>
    </g>
    <g transform="matrix(1, 0, 0, 1, -18.46, 0)" filter="url(#Rectangle_4190)">
      <rect id="Rectangle_4190-2" data-name="Rectangle 4190" width="80.316" height="61.946" transform="translate(34.95 57.39)" fill="#0199b1"/>
    </g>
    <g id="Group_15565" data-name="Group 15565" transform="translate(16.489 57.242)">
      <path id="Path_5889" data-name="Path 5889" d="M230.753,226.6l14.835,13.836h78.954L311.069,226.6Z" transform="translate(-230.753 -226.455)" fill="#3bafc2"/>
      <g id="Group_15564" data-name="Group 15564" transform="translate(0)">
        <path id="Path_5890" data-name="Path 5890" d="M230.753,226.493l80.316-.146h.062l.043.045,13.336,13.692.139.142.247.254h-.354l-78.954-.06h-.035l-.026-.024-14.773-13.9,14.9,13.771-.061-.024,78.954-.06-.107.253-.139-.143-13.332-13.7.1.044Z" transform="translate(-230.753 -226.346)" fill="#263238"/>
      </g>
    </g>
    <g id="Group_15567" data-name="Group 15567" transform="translate(38.972 85.952)">
      <path id="Path_5891" data-name="Path 5891" d="M271.643,276.468a1.646,1.646,0,1,0,.124,0" transform="translate(-270.003 -276.468)" fill="#263238"/>
      <path id="Path_5892" data-name="Path 5892" d="M304.749,276.468a1.646,1.646,0,1,0,.124,0" transform="translate(-284.145 -276.468)" fill="#263238"/>
      <g id="Group_15566" data-name="Group 15566" transform="translate(1.315 6.516)">
        <path id="Path_5893" data-name="Path 5893" d="M291.709,296.156a11.682,11.682,0,0,0-1.59-3.561,10.524,10.524,0,0,0-3.034-2.911,9.265,9.265,0,0,0-9.813-.269,10.51,10.51,0,0,0-3.19,2.74,11.69,11.69,0,0,0-1.782,3.468.948.948,0,0,1,.046-.271,6.032,6.032,0,0,1,.21-.76,9.175,9.175,0,0,1,1.358-2.565,10.439,10.439,0,0,1,3.222-2.852,9.412,9.412,0,0,1,10.1.277,10.439,10.439,0,0,1,3.06,3.024,9.188,9.188,0,0,1,1.215,2.635,6.047,6.047,0,0,1,.168.771A.952.952,0,0,1,291.709,296.156Z" transform="translate(-272.298 -287.843)" fill="#263238"/>
      </g>
    </g>
    <path id="Path_5894" data-name="Path 5894" d="M231.071,227.792l14.2,18.009H311.2v-4.854H245.723Z" transform="translate(-214.399 -169.722)" opacity="0.5"/>
    <g id="Group_15568" data-name="Group 15568" transform="translate(80.818 71.064)">
      <path id="Path_5895" data-name="Path 5895" d="M343.2,298.6c-.083,0-.15-10.775-.15-24.064s.067-24.065.15-24.065.149,10.772.149,24.065S343.286,298.6,343.2,298.6Z" transform="translate(-343.054 -250.476)" fill="#263238"/>
    </g>
    <path id="Path_5901" data-name="Path 5901" d="M0,4.035Z" transform="translate(86.499 109.117)" fill="#f5f5f5"/>
    <g id="Group_15570" data-name="Group 15570" transform="translate(0 57.388)">
      <path id="Path_5896" data-name="Path 5896" d="M218.456,226.6l-16.489,13.836h16.489Z" transform="translate(-201.967 -226.602)" fill="#e8505b"/>
      <g id="Group_15569" data-name="Group 15569">
        <path id="Path_5897" data-name="Path 5897" d="M218.456,226.6l-16.489,13.836h16.489Z" transform="translate(-201.967 -226.602)" fill="#004c58"/>
      </g>
    </g>
  </g>
</svg>
